<svg xmlns="http://www.w3.org/2000/svg" viewBox="0 0 13.5 13.5"><path d="M4 4.5c0 .3-.2.5-.5.5h-1c-.3 0-.5-.2-.5-.5s.2-.5.5-.5h1c.3 0 .5.2.5.5zM3.5 7h-1c-.3 0-.5.2-.5.5s.2.5.5.5h1c.3 0 .5-.2.5-.5S3.8 7 3.5 7zm0-1.5h-1c-.3 0-.5.2-.5.5s.2.5.5.5h1c.3 0 .5-.2.5-.5s-.2-.5-.5-.5zm6.5-1c0-.3-.2-.5-.5-.5h-1c-.3 0-.5.2-.5.5s.2.5.5.5h1c.3 0 .5-.2.5-.5zM6.5 4h-1c-.3 0-.5.2-.5.5s.2.5.5.5h1c.3 0 .5-.2.5-.5S6.8 4 6.5 4zm0 3h-1c-.3 0-.5.2-.5.5s.2.5.5.5H6c.2-.4.4-.7.7-1h-.2zm0-1.5h-1c-.3 0-.5.2-.5.5s.2.5.5.5h1c.3 0 .5-.2.5-.5s-.2-.5-.5-.5zm2 0c-.3 0-.5.2-.5.5.5-.3 1.1-.4 1.7-.5H8.5zM2.1 9h3.5c-.1.3-.1.7-.1 1H2.1C1 10 0 9 0 7.9V2.5C0 1.1 1.1 0 2.5 0h7C10.9 0 12 1.1 12 2.5V6c-.3-.2-.6-.3-1-.4V3H1v4.9C1 8.5 1.5 9 2.1 9zm-1-7h9.8c-.2-.6-.8-1-1.4-1h-7c-.7 0-1.2.4-1.4 1zm12.4 8c0 1.9-1.6 3.5-3.5 3.5S6.5 11.9 6.5 10 8.1 6.5 10 6.5s3.5 1.6 3.5 3.5zM12 10c0-.3-.2-.5-.5-.5h-1v-1c0-.3-.2-.5-.5-.5s-.5.2-.5.5V10c0 .3.2.5.5.5h1.5c.3 0 .5-.2.5-.5z"/></svg>