<svg id="Слой_1" xmlns="http://www.w3.org/2000/svg" viewBox="0 0 101 124"><style>.st0{opacity:.26;fill:#aa1a17}</style><path class="st0" d="M88 16h-3v-3c0-7.2-5.8-13-13-13H13C5.8 0 0 5.8 0 13v82c0 7.2 5.8 13 13 13h3v3c0 7.2 5.8 13 13 13h59c7.2 0 13-5.8 13-13V29c0-7.2-5.8-13-13-13zM6 95V13c0-3.9 3.1-7 7-7h59c3.9 0 7 3.1 7 7v82c0 3.9-3.1 7-7 7H13c-3.9 0-7-3.1-7-7zm89 16c0 3.9-3.1 7-7 7H29c-3.9 0-7-3.1-7-7v-3h50c7.2 0 13-5.8 13-13V22h3c3.9 0 7 3.1 7 7v82zM37 48c2.8 0 5-2.2 5-5V20c0-2.8-2.2-5-5-5H20c-2.8 0-5 2.2-5 5v23c0 2.8 2.2 5 5 5h17zM21 21h15v21H21V21zm-1.5 69c-1.7 0-3-1.3-3-3s1.3-3 3-3h46c1.7 0 3 1.3 3 3s-1.3 3-3 3h-46zm30-56.5c0-1.7 1.3-3 3-3h13c1.7 0 3 1.3 3 3s-1.3 3-3 3h-13c-1.7 0-3-1.3-3-3zm0 17.8c0-1.7 1.3-3 3-3h13c1.7 0 3 1.3 3 3s-1.3 3-3 3h-13c-1.7 0-3-1.3-3-3zm19 17.9c0 1.7-1.3 3-3 3h-46c-1.7 0-3-1.3-3-3s1.3-3 3-3h46c1.7 0 3 1.3 3 3z"/></svg>