<svg id="Слой_1" xmlns="http://www.w3.org/2000/svg" viewBox="0 0 37.9 37.8"><style>.st0{fill:#e0dfdf}</style><path class="st0" d="M20.1 6.1c.1-.5.7-.8 1.2-.7 5.3 1.5 9.5 5.7 11 11 .1.5-.2 1.1-.7 1.2h-.3c-.4 0-.8-.3-1-.7-1.3-4.6-5-8.3-9.6-9.6-.4-.1-.7-.6-.6-1.2zM22.2 2c6.5 1.8 11.7 7 13.5 13.6.1.4.5.7 1 .7h.3c.5-.1.8-.7.7-1.2-2-7.3-7.7-13-15-14.9-.5-.1-1.1.2-1.2.7-.2.4.2 1 .7 1.1zm15.7 27.1c0 1.1-.4 2.1-1.2 2.9l-4.3 4.3c-.8.8-2.1 1.5-4 1.5-1.5 0-3.5-.5-6-1.7-3.7-1.8-7.9-5-11.8-8.9C3 19.5-2.8 9.8 1.5 5.5l4.3-4.4C7.4-.3 9.9-.3 11.4 1l.1.1 4.3 4.5c.7.5 1.2 1.6 1.2 2.7s-.5 2.1-1.3 2.8L12.8 14c2.3 4.5 6.6 8.8 10.9 11l2.9-2.9c1.6-1.6 4.1-1.6 5.7 0l4.3 4.3c.9.7 1.3 1.7 1.3 2.7zm-2 0c0-.5-.2-1-.6-1.4L31 23.4c-.8-.8-2.1-.8-2.9 0l-3.4 3.4c-.3.3-.7.4-1.1.2-5.2-2.3-10.4-7.5-12.9-12.9-.2-.4-.1-.8.2-1.1l3.4-3.4c.5-.3.7-.8.7-1.3s-.2-1-.6-1.3l-4.3-4.5c-.4-.3-.9-.5-1.5-.5-.5 0-1.1.2-1.5.5L2.9 6.9c-1.8 1.8-.4 5.6.6 7.6C5.2 17.9 8.3 22 12 25.8c3.8 3.8 7.8 6.8 11.3 8.5 2.5 1.2 5.9 2.3 7.7.6l4.3-4.3c.4-.4.6-.9.6-1.5z"/></svg>