<svg id="Слой_1" xmlns="http://www.w3.org/2000/svg" viewBox="0 0 75 69.3"><style>.st0{fill:#aa1a17}</style><path class="st0" d="M15.8 7h24v1.7h-24zm0 5h19v1.7h-19zm18.1 37.3h11.7V51H33.9zm0 5h23.7V56H33.9z"/><path class="st0" d="M75 43.4V12.6H50.3v6.2h-4V5.5c0-3-2.4-5.4-5.4-5.5H6.1v.1h-.5C2.5 0 0 2.5 0 5.5v2.1h9.3v23h-5c-1.7 0-3.1 1.4-3.1 3.1 0 1.7 1.4 3.1 3.1 3.1h5.2V45c0 3.1 2.5 5.5 5.5 5.5h13.3v13.3c0 3.1 2.5 5.5 5.5 5.5h34.6c2.8 0 4.8-2.2 4.8-5.2v-2.4h-8.1V43.4H75zM52 14.3h21.3v27.3H52V14.3zM9.3 5.9H1.7v-.4c0-2.1 1.7-3.8 3.8-3.8s3.8 1.7 3.8 3.8v.4zm1.8-.4c0-1.5-.6-2.9-1.6-3.8h31.2c2.1 0 3.8 1.7 3.8 3.8v13.3H24.8v.1h-.5c-3.1 0-5.5 2.5-5.5 5.5v6.2h-7.7V5.5zm17.1 19v6.2h-7.6v-6.2c0-2.1 1.7-3.8 3.8-3.8 2-.2 3.8 1.6 3.8 3.8zM2.8 33.7c0-.8.7-1.4 1.4-1.4h26.4v2.9H4.3c-.8 0-1.5-.7-1.5-1.5zm31-1.4l2.9 1.4-2.9 1.4h-1.4v-2.9h1.4v.1zM11.1 45v-8.2h7.6V45c0 2.1-1.7 3.8-3.8 3.8s-3.8-1.6-3.8-3.8zm7.8 3.9c.9-1 1.5-2.3 1.5-3.8v-8.2H28v12h-9.1zm52.5 15.4c0 2-1.3 3.5-3.1 3.5H37.7c.9-1 1.5-2.3 1.5-3.8v-.3h32.2v.6zm-8.2-2.5H38.4l-1.2.2.2.9c.1.2.1.7.1 1 0 2.1-1.7 3.8-3.8 3.8-2.1 0-3.8-1.7-3.8-3.8V37h4.3l6.3-3.1-6.3-3.1H30v-6.2c0-1.5-.6-2.9-1.6-3.8h21.9v22.6h12.9v18.4z"/><path class="st0" d="M53.5 23.7h18.2v-7.4H53.5v7.4zm1.8-5.7h14.9v4H55.3v-4zm-.1 17.9H60v1.7h-4.8zm11.6 2.5h1.7v1.7h-1.7zm-2.1-2.5h5.9v1.7h-5.9zm2.1-2.6h1.7V35h-1.7zm-8.4-7.2h-1.7v1.5h-1.5v1.7h1.5v1.6h1.7v-1.6H60v-1.7h-1.6zm8.2 4.7l1.1-1.1 1.1 1.1 1.2-1.1-1.1-1.2 1.1-1.2-1.2-1.1-1.1 1-1.1-1-1.2 1.1 1.1 1.2-1.1 1.2z"/></svg>