<svg id="Слой_1" xmlns="http://www.w3.org/2000/svg" viewBox="0 0 75 59.2"><style>.st0{fill:#aa1a17}</style><path class="st0" d="M42.8 33l.5.7.5.7c1.2 1.4 2.4 2.5 4 3.3s3.3 1.2 5.1 1.2c4.5 0 8.7-2.7 10.6-6.7l.3-.8-10.2-4.8-.6-11.4-.8.1c-2.2.1-3.9.8-5.8 2-.1.1-.3.2-.5.3V6.1h-1.7v13.2c-1.4 1.6-2.3 3.5-2.8 5.5-.3 2-.2 3.8.3 5.7h-2.3V10.3h-1.7v20.2H33V16.6h-1.7v13.8h-4.7v-17h-1.7v17.2h-4.7V12.1h-1.6v18.5h-4.7V18.5H12v12.1H8v1.7h34.5c.1.2.2.5.3.7zM53 37.2c-1.5 0-3-.3-4.4-1-1.4-.7-2.5-1.5-3.5-2.7l3.2-2.2 4.6-3.1 8.5 4.2c-1.6 2.8-5 4.8-8.4 4.8zm-10-12c.5-2.7 2-5 4.3-6.5 1.3-.9 2.5-1.4 4-1.6l.7 9.5-7.8 5.3c-1.2-2-1.6-4.3-1.2-6.7z"/><path class="st0" d="M66.3 30.5l.3-.8c.9-2 1.3-3.8 1.2-6-.5-6.3-6.1-11.3-12.6-10.8l-.8.1.9 12.2 11 5.3zm-.1-6.7c.1 1.6-.1 2.9-.6 4.3l-8.5-4.2-.7-9.5c5.1.1 9.4 4.2 9.8 9.4z"/><path class="st0" d="M71.9 0H3.1C1.4 0 0 1.4 0 3.1v42.8C0 47.7 1.4 49 3.1 49h25l-4.6 8.5h-5.1c-.5 0-.8.3-.8.8s.3.8.8.8h38.1c.5 0 .8-.3.8-.8s-.3-.8-.8-.8h-5.1L46.8 49h25c1.7 0 3.1-1.4 3.1-3.1V3.1c.1-1.7-1.3-3.1-3-3.1zM3.1 1.7h68.7c.8 0 1.4.7 1.4 1.4v37.7H1.6V3.1c.1-.8.7-1.4 1.5-1.4zm46.4 55.9h-24l4.6-8.5h14.7l4.7 8.5zm22.4-10.3H3.1c-.8 0-1.4-.7-1.4-1.4v-3.3h71.5v3.3c.1.8-.5 1.4-1.3 1.4z"/><path class="st0" d="M40.8 44.1h-6.7c-.5 0-.8.3-.8.8s.3.8.8.8h6.7c.5 0 .8-.3.8-.8.1-.5-.3-.8-.8-.8z"/></svg>