<?xml version="1.0" encoding="utf-8"?>
<!-- Generator: Adobe Illustrator 16.2.0, SVG Export Plug-In . SVG Version: 6.00 Build 0)  -->
<!DOCTYPE svg PUBLIC "-//W3C//DTD SVG 1.1//EN" "http://www.w3.org/Graphics/SVG/1.1/DTD/svg11.dtd">
<svg version="1.1" id="Слой_1" xmlns="http://www.w3.org/2000/svg" xmlns:xlink="http://www.w3.org/1999/xlink" x="0px" y="0px"
	 width="20.393px" height="9px" viewBox="0 0 20.393 9" enable-background="new 0 0 20.393 9" xml:space="preserve">
<g>
	<path fill="#000000" d="M20.393,3.397v2.266c0,0.11-0.036,0.2-0.107,0.271c-0.072,0.072-0.161,0.106-0.271,0.106H5.286v2.644
		c0,0.165-0.073,0.279-0.224,0.343C4.913,9.09,4.775,9.069,4.649,8.968l-4.531-4.13C0.039,4.759,0,4.667,0,4.565
		c0-0.11,0.039-0.205,0.118-0.284l4.531-4.176c0.126-0.11,0.264-0.135,0.413-0.071c0.15,0.071,0.224,0.185,0.224,0.343v2.644h14.728
		c0.11,0,0.199,0.034,0.271,0.104C20.356,3.197,20.393,3.287,20.393,3.397z"/>
</g>
</svg>
