<?xml version="1.0" encoding="utf-8"?>
<!-- Generator: Adobe Illustrator 21.0.2, SVG Export Plug-In . SVG Version: 6.00 Build 0)  -->
<svg version="1.1" id="Слой_1" xmlns="http://www.w3.org/2000/svg" xmlns:xlink="http://www.w3.org/1999/xlink" x="0px" y="0px"
	 viewBox="0 0 15 14" style="enable-background:new 0 0 15 14;" xml:space="preserve">
<style type="text/css">
	.st0{fill:#FFFFFF;}
</style>
<path class="st0" d="M11.1,5.6l0.7,0.7l-5.4,5.4L3.1,8.4l0.7-0.7l2.6,2.6L11.1,5.6z M15,1v11.5c0,0.8-0.7,1.5-1.5,1.5h-12
	C0.7,14,0,13.3,0,12.5V1h2V0h3v1h5V0h3v1H15z M13,2v1h1V2H13z M11,3h1V1h-1V3z M5,2v1h5V2H5z M3,3h1V1H3V3z M1,2v1h1V2H1z M14,12.5
	V4h-1h-3H5H2H1v8.5C1,12.8,1.2,13,1.5,13h12C13.8,13,14,12.8,14,12.5z"/>
</svg>
