<?xml version="1.0" encoding="utf-8"?>
<!-- Generator: Adobe Illustrator 21.0.2, SVG Export Plug-In . SVG Version: 6.00 Build 0)  -->
<svg version="1.1" id="Слой_1" xmlns="http://www.w3.org/2000/svg" xmlns:xlink="http://www.w3.org/1999/xlink" x="0px" y="0px"
	 viewBox="0 0 75 69.3" style="enable-background:new 0 0 75 69.3;" xml:space="preserve">
<style type="text/css">
	.st0{fill:#AA1A17;}
</style>
<g>
	<rect x="15.8" y="7" class="st0" width="24" height="1.7"/>
	<rect x="15.8" y="12" class="st0" width="19" height="1.7"/>
	<rect x="33.9" y="49.3" class="st0" width="11.7" height="1.7"/>
	<rect x="33.9" y="54.3" class="st0" width="23.7" height="1.7"/>
	<path class="st0" d="M75,43.4V12.6H50.3v6.2h-4V5.5c0-3-2.4-5.4-5.4-5.5H6.1v0.1c-0.1,0-0.3,0-0.5,0C2.5,0,0,2.5,0,5.5v2.1h9.3v23
		H4.3c-1.7,0-3.1,1.4-3.1,3.1c0,1.7,1.4,3.1,3.1,3.1h5.2V45c0,3.1,2.5,5.5,5.5,5.5h13.3v13.3c0,3.1,2.5,5.5,5.5,5.5l0,0h34.6
		c2.8,0,4.8-2.2,4.8-5.2c0-0.5,0-1.6,0-1.6v-0.8h-8.1V43.4H75z M52,14.3h21.3v27.3H52V14.3z M9.3,5.9H1.7V5.5c0-2.1,1.7-3.8,3.8-3.8
		s3.8,1.7,3.8,3.8V5.9z M11.1,5.5c0-1.5-0.6-2.9-1.6-3.8h31.2c2.1,0,3.8,1.7,3.8,3.8v13.3H24.8v0.1c-0.1,0-0.3,0-0.5,0
		c-3.1,0-5.5,2.5-5.5,5.5v6.2h-7.7V5.5z M28.2,24.5v6.2h-7.6v-6.2c0-2.1,1.7-3.8,3.8-3.8C26.4,20.5,28.2,22.3,28.2,24.5z M2.8,33.7
		c0-0.8,0.7-1.4,1.4-1.4h26.4v2.9H4.3C3.5,35.2,2.8,34.5,2.8,33.7z M33.8,32.3l2.9,1.4l-2.9,1.4h-1.4v-2.9h1.4V32.3z M11.1,45v-8.2
		h7.6V45c0,2.1-1.7,3.8-3.8,3.8S11.1,47.2,11.1,45z M18.9,48.9c0.9-1,1.5-2.3,1.5-3.8v-8.2H28v12L18.9,48.9z M71.4,64.3
		c0,2-1.3,3.5-3.1,3.5H37.7c0.9-1,1.5-2.3,1.5-3.8c0-0.1,0-0.2,0-0.3h32.2C71.4,63.8,71.4,64.2,71.4,64.3z M63.2,61.8H38.4l-1.2,0.2
		l0.2,0.9c0.1,0.2,0.1,0.7,0.1,1c0,2.1-1.7,3.8-3.8,3.8c-2.1,0-3.8-1.7-3.8-3.8V37h4.3l6.3-3.1l-6.3-3.1H30v-6.2
		c0-1.5-0.6-2.9-1.6-3.8h21.9v22.6h12.9V61.8z"/>
	<path class="st0" d="M53.5,23.7h18.2v-7.4H53.5V23.7z M55.3,18h14.9v4H55.3V18z"/>
	<rect x="55.2" y="35.9" class="st0" width="4.8" height="1.7"/>
	<rect x="66.8" y="38.4" class="st0" width="1.7" height="1.7"/>
	<rect x="64.7" y="35.9" class="st0" width="5.9" height="1.7"/>
	<rect x="66.8" y="33.3" class="st0" width="1.7" height="1.7"/>
	<polygon class="st0" points="58.4,26.1 56.7,26.1 56.7,27.6 55.2,27.6 55.2,29.3 56.7,29.3 56.7,30.9 58.4,30.9 58.4,29.3 60,29.3 
		60,27.6 58.4,27.6 	"/>
	<polygon class="st0" points="66.6,30.8 67.7,29.7 68.8,30.8 70,29.7 68.9,28.5 70,27.3 68.8,26.2 67.7,27.2 66.6,26.2 65.4,27.3 
		66.5,28.5 65.4,29.7 	"/>
</g>
</svg>
