<?xml version="1.0" encoding="utf-8"?>
<!-- Generator: Adobe Illustrator 21.0.2, SVG Export Plug-In . SVG Version: 6.00 Build 0)  -->
<svg version="1.1" id="Слой_1" xmlns="http://www.w3.org/2000/svg" xmlns:xlink="http://www.w3.org/1999/xlink" x="0px" y="0px"
	 viewBox="0 0 75 75.7" style="enable-background:new 0 0 75 75.7;" xml:space="preserve">
<style type="text/css">
	.st0{fill:#AA1A17;}
</style>
<g>
	<path class="st0" d="M70.3,53.2c-1-0.5-2.2-0.5-3.3,0l-15.4,6.9c0-0.2,0.1-0.5,0.1-0.7c0-2.2-1.7-4-3.8-4l0,0l0,0c0,0,0,0-0.1,0
		l0,0H37.1L29,51.6c-1.7-0.8-3.6-1.2-5.5-1.2h-6.3v-2.9H0v1.7h15.6v22.1H3.1v1.7h14.2v-2.9H22l14.9,5c1,0.3,2,0.5,3,0.5
		c1.5,0,3.1-0.3,4.5-1l25.8-13.5c1-0.5,1.9-1.3,2.3-2.3c0.5-1,0.5-2.2,0-3.3C72.2,54.5,71.4,53.7,70.3,53.2z M71,58.1
		c-0.2,0.6-0.7,1-1.4,1.4L43.7,73c-1.9,0.9-4.2,1.2-6.2,0.5l-15-5h-5.1V52.2h6.3c1.6,0,3.3,0.3,4.7,1l8.5,4H48c1.2,0,2.2,1,2.2,2.2
		c0,1.3-1,2.2-2.2,2.2H34.8h-0.1c-1.2,0.2-3.5,1.3-3.5,3.6H33c0-1.4,1.6-1.7,2-1.9h13l0,0c0.7,0,1.3-0.2,1.7-0.5l0,0l18-8
		c1.3-0.6,2.8,0.1,3.3,1.4C71.3,56.8,71.3,57.5,71,58.1z"/>
	<rect x="7.2" y="67.6" class="st0" width="1.7" height="1.7"/>
	<rect x="10.9" y="67.6" class="st0" width="1.7" height="1.7"/>
	<path class="st0" d="M74.8,15.7c-0.5-1-1.2-1.7-2.2-2.2c-0.5-0.2-0.8-0.2-1.3-0.3l1.9-4.5l-4.5-1.9c0.3-0.3,0.6-0.7,0.7-1.2
		c0.8-2.1-0.1-4.4-2.2-5.4C66.6,0.1,66,0,65.4,0c-1.6,0-3.1,0.9-3.7,2.6c-0.2,0.5-0.2,0.9-0.3,1.3L56.8,2L55,6.5
		c-0.3-0.3-0.7-0.6-1.2-0.7c-0.5-0.2-1-0.3-1.6-0.3c-1.6,0-3.1,0.9-3.7,2.6c-0.8,2.1,0.1,4.5,2.2,5.4c0.5,0.2,0.8,0.2,1.3,0.3
		l-1.9,4.5L66.3,25l1.9-4.5c0.3,0.3,0.7,0.6,1.2,0.7c0.5,0.2,1,0.3,1.6,0.3c1.6,0,3.1-0.9,3.7-2.6C75.1,17.9,75.1,16.8,74.8,15.7z
		 M73.1,18.3c-0.5,1.2-1.9,1.7-3.1,1.3c-0.6-0.2-1-0.7-1.3-1.2l-0.8-1.9l-2.6,6.2l-12.9-5.5l2.6-6.2l-1.9,0.7
		c-0.6,0.2-1.2,0.2-1.7,0c-1.2-0.5-1.7-1.9-1.3-3.1c0.5-1.2,1.9-1.7,3-1.3C53.7,7.6,54,8,54.4,8.5l0.8,1.9l2.7-6.2L64,6.8l-0.7-1.9
		c-0.2-0.6-0.2-1.2,0-1.7c0.5-1.2,1.9-1.7,3.1-1.3c1.2,0.5,1.7,1.9,1.3,3c-0.2,0.6-0.7,1-1.2,1.3L64.7,7l6.2,2.6l-2.6,6.2l1.9-0.7
		c0.6-0.2,1.2-0.2,1.7,0c0.6,0.2,1,0.7,1.3,1.3C73.4,17,73.4,17.7,73.1,18.3z"/>
	<path class="st0" d="M27.6,27v3.1c-0.5-0.1-0.8-0.2-1.3-0.2c-2.2,0-4.1,1.9-4.1,4.1s1.9,4.1,4.1,4.1c0.5,0,0.9-0.1,1.3-0.2v4.9h4.9
		c-0.1,0.5-0.2,0.9-0.2,1.4c0,2.2,1.9,4.1,4.1,4.1s4.1-1.9,4.1-4.1c0-0.5-0.1-0.9-0.2-1.4h4.9l0,0h3.1c-0.1,0.5-0.2,0.9-0.2,1.4
		c0,2.2,1.9,4.1,4.1,4.1c2.2,0,4.1-1.9,4.1-4.1c0-0.5-0.1-0.9-0.2-1.4h4.9v-4.9c0.5,0.1,0.9,0.2,1.3,0.2c2.2,0,4.1-1.9,4.1-4.1
		s-1.9-4.1-4.1-4.1c-0.5,0-0.9,0.1-1.3,0.2v-4.9H45.2v-6.8l-1.5,1.4c-0.5,0.5-1,0.7-1.6,0.7c-1.3,0-2.3-1-2.3-2.3
		c0-1.3,1-2.3,2.3-2.3c0.6,0,1.2,0.2,1.6,0.6l1.5,1.4V9.4h-4.9c0.1-0.5,0.2-0.8,0.2-1.3c0-2.2-1.9-4.1-4.1-4.1
		c-2.3-0.1-4.2,1.7-4.2,4.1c0,0.5,0.1,0.9,0.2,1.3h-4.9v4.9c-0.5-0.1-0.8-0.2-1.3-0.2c-2.2,0-4.1,1.9-4.1,4.1s1.9,4.1,4.1,4.1
		c0.5,0,0.9-0.1,1.3-0.2v3.1V27z M43.4,41.1h-6.8l1.4,1.5c0.5,0.5,0.7,1,0.7,1.6c0,1.3-1,2.3-2.3,2.3c-1.3,0-2.3-1-2.3-2.3
		c0-0.6,0.2-1.2,0.6-1.6l1.4-1.5h-6.8v-6.8l-1.5,1.4c-0.5,0.5-1,0.7-1.6,0.7c-1.3,0-2.3-1-2.3-2.3s1-2.3,2.3-2.3
		c0.6,0,1.2,0.2,1.6,0.6l1.5,1.4V27h14.1v3.1c-0.5-0.1-0.8-0.2-1.3-0.2c-0.6,0-1.2,0.1-1.6,0.3C39,30.9,38,32.4,38,34
		c0,2.2,1.9,4.1,4.1,4.1c0.5,0,0.9-0.1,1.3-0.2v3.3H43.4z M45.2,27h14.1v6.6l1.5-1.4c0.3-0.3,0.8-0.7,1.6-0.7c1.3,0,2.3,1,2.3,2.3
		s-1,2.3-2.3,2.3c-0.6,0-1.2-0.2-1.6-0.6l-1.5-1.4V41h-6.8l1.4,1.5c0.5,0.5,0.7,1,0.7,1.6c0,1.3-1,2.3-2.3,2.3c-1.3,0-2.3-1-2.3-2.3
		c0-0.6,0.2-1.2,0.6-1.6l1.4-1.5h-6.8v-6.8l0,0l0,0l-1.5,1.4c-0.2,0.2-0.5,0.3-0.7,0.5c-0.2,0.1-0.6,0.1-0.8,0.1
		c-1.3,0-2.3-1-2.3-2.3c0-0.9,0.6-1.9,1.4-2.2c0.2-0.1,0.6-0.2,0.9-0.2c0.6,0,1.2,0.2,1.6,0.6l1.5,1.4l0,0l0,0V27H45.2z M29.3,25.3
		v-6.8l-1.5,1.4c-0.5,0.5-1,0.7-1.6,0.7c-1.3,0-2.3-1-2.3-2.3c0-1.3,1-2.3,2.3-2.3c0.6,0,1.2,0.2,1.6,0.6l1.5,1.4v-6.8h6.8l-1.4-1.5
		C34.2,9.3,34,8.7,34,8.2c0-1.3,1-2.3,2.3-2.3c1.3,0,2.3,1,2.3,2.3c0,0.6-0.2,1.2-0.7,1.6l-1.4,1.5h6.8v3.1
		c-0.5-0.1-0.8-0.2-1.3-0.2c-2.2,0-4.1,1.9-4.1,4.1s1.9,4.1,4.1,4.1c0.5,0,0.9-0.1,1.3-0.2v3.1h-4.7l0,0H34l0,0H29.3z"/>
</g>
</svg>
