<?xml version="1.0" encoding="utf-8"?>
<!-- Generator: Adobe Illustrator 21.0.2, SVG Export Plug-In . SVG Version: 6.00 Build 0)  -->
<svg version="1.1" id="Слой_1" xmlns="http://www.w3.org/2000/svg" xmlns:xlink="http://www.w3.org/1999/xlink" x="0px" y="0px"
	 viewBox="0 0 75 59.2" style="enable-background:new 0 0 75 59.2;" xml:space="preserve">
<style type="text/css">
	.st0{fill:#AA1A17;}
</style>
<g>
	<path class="st0" d="M42.8,33L42.8,33l0.5,0.7l0,0l0.5,0.7l0,0c1.2,1.4,2.4,2.5,4,3.3s3.3,1.2,5.1,1.2c4.5,0,8.7-2.7,10.6-6.7
		l0.3-0.8l-10.2-4.8L53,15.2l-0.8,0.1c-2.2,0.1-3.9,0.8-5.8,2c-0.1,0.1-0.3,0.2-0.5,0.3V6.1h-1.7v13.2c-1.4,1.6-2.3,3.5-2.8,5.5
		c-0.3,2-0.2,3.8,0.3,5.7h-2.3V10.3h-1.7v20.2H33V16.6h-1.7v13.8h-4.7V13.4h-1.7v17.2h-4.7V12.1h-1.6v18.5h-4.7V18.5H12v12.1H8v1.7
		h34.5C42.6,32.5,42.7,32.8,42.8,33z M53,37.2c-1.5,0-3-0.3-4.4-1c-1.4-0.7-2.5-1.5-3.5-2.7l3.2-2.2l4.6-3.1l8.5,4.2
		C59.8,35.2,56.4,37.2,53,37.2z M43,25.2c0.5-2.7,2-5,4.3-6.5c1.3-0.9,2.5-1.4,4-1.6l0.7,9.5l-7.8,5.3C43,29.9,42.6,27.6,43,25.2z"
		/>
	<path class="st0" d="M66.3,30.5l0.3-0.8c0.9-2,1.3-3.8,1.2-6c-0.5-6.3-6.1-11.3-12.6-10.8l-0.8,0.1l0.9,12.2L66.3,30.5z M66.2,23.8
		c0.1,1.6-0.1,2.9-0.6,4.3l-8.5-4.2l-0.7-9.5C61.5,14.5,65.8,18.6,66.2,23.8z"/>
	<path class="st0" d="M71.9,0H3.1C1.4,0,0,1.4,0,3.1v42.8C0,47.7,1.4,49,3.1,49h25l-4.6,8.5h-5.1c-0.5,0-0.8,0.3-0.8,0.8
		s0.3,0.8,0.8,0.8h38.1c0.5,0,0.8-0.3,0.8-0.8s-0.3-0.8-0.8-0.8h-5.1L46.8,49h25c1.7,0,3.1-1.4,3.1-3.1V3.1C75,1.4,73.6,0,71.9,0z
		 M3.1,1.7h68.7c0.8,0,1.4,0.7,1.4,1.4v37.7H1.6V3.1C1.7,2.3,2.3,1.7,3.1,1.7z M49.5,57.6h-24l4.6-8.5h14.7L49.5,57.6z M71.9,47.3
		h-26H29.1h-26c-0.8,0-1.4-0.7-1.4-1.4v-3.3h71.5v3.3C73.3,46.7,72.7,47.3,71.9,47.3z"/>
	<path class="st0" d="M40.8,44.1h-6.7c-0.5,0-0.8,0.3-0.8,0.8s0.3,0.8,0.8,0.8h6.7c0.5,0,0.8-0.3,0.8-0.8
		C41.7,44.4,41.3,44.1,40.8,44.1z"/>
</g>
</svg>
