<?xml version="1.0" encoding="utf-8"?>
<!-- Generator: Adobe Illustrator 21.0.2, SVG Export Plug-In . SVG Version: 6.00 Build 0)  -->
<svg version="1.1" id="Слой_1" xmlns="http://www.w3.org/2000/svg" xmlns:xlink="http://www.w3.org/1999/xlink" x="0px" y="0px"
	 viewBox="0 0 13.5 13.5" style="enable-background:new 0 0 13.5 13.5;" xml:space="preserve">
<path d="M4,4.5C4,4.8,3.8,5,3.5,5h-1C2.2,5,2,4.8,2,4.5S2.2,4,2.5,4h1C3.8,4,4,4.2,4,4.5z M3.5,7h-1C2.2,7,2,7.2,2,7.5S2.2,8,2.5,8
	h1C3.8,8,4,7.8,4,7.5S3.8,7,3.5,7z M3.5,5.5h-1C2.2,5.5,2,5.7,2,6s0.2,0.5,0.5,0.5h1C3.8,6.5,4,6.3,4,6S3.8,5.5,3.5,5.5z M10,4.5
	C10,4.2,9.8,4,9.5,4h-1C8.2,4,8,4.2,8,4.5S8.2,5,8.5,5h1C9.8,5,10,4.8,10,4.5z M6.5,4h-1C5.2,4,5,4.2,5,4.5S5.2,5,5.5,5h1
	C6.8,5,7,4.8,7,4.5S6.8,4,6.5,4z M6.5,7h-1C5.2,7,5,7.2,5,7.5S5.2,8,5.5,8H6c0.2-0.4,0.4-0.7,0.7-1C6.6,7,6.6,7,6.5,7z M6.5,5.5h-1
	C5.2,5.5,5,5.7,5,6s0.2,0.5,0.5,0.5h1C6.8,6.5,7,6.3,7,6S6.8,5.5,6.5,5.5z M8.5,5.5C8.2,5.5,8,5.7,8,6c0.5-0.3,1.1-0.4,1.7-0.5
	c-0.1,0-0.1,0-0.2,0H8.5z M2.1,9h3.5c-0.1,0.3-0.1,0.7-0.1,1H2.1C1,10,0,9,0,7.9V2.5C0,1.1,1.1,0,2.5,0h7C10.9,0,12,1.1,12,2.5V6
	c-0.3-0.2-0.6-0.3-1-0.4V3H1v4.9C1,8.5,1.5,9,2.1,9z M1.1,2h9.8c-0.2-0.6-0.8-1-1.4-1h-7C1.8,1,1.3,1.4,1.1,2z M13.5,10
	c0,1.9-1.6,3.5-3.5,3.5S6.5,11.9,6.5,10c0-1.9,1.6-3.5,3.5-3.5S13.5,8.1,13.5,10z M12,10c0-0.3-0.2-0.5-0.5-0.5h-1v-1
	C10.5,8.2,10.3,8,10,8S9.5,8.2,9.5,8.5V10c0,0.3,0.2,0.5,0.5,0.5h1.5C11.8,10.5,12,10.3,12,10z"/>
</svg>
