<?xml version="1.0" encoding="utf-8"?>
<!-- Generator: Adobe Illustrator 21.0.2, SVG Export Plug-In . SVG Version: 6.00 Build 0)  -->
<svg version="1.1" id="Слой_1" xmlns="http://www.w3.org/2000/svg" xmlns:xlink="http://www.w3.org/1999/xlink" x="0px" y="0px"
	 viewBox="0 0 20 20" style="enable-background:new 0 0 20 20;" xml:space="preserve">
<style type="text/css">
	.st0{fill:#00000a;}
</style>
<path class="st0" d="M19.7,18.3c0.4,0.4,0.4,1,0,1.4C19.5,19.9,19.3,20,19,20s-0.5-0.1-0.7-0.3L10,11.4l-8.3,8.3
	C1.5,19.9,1.3,20,1,20s-0.5-0.1-0.7-0.3c-0.4-0.4-0.4-1,0-1.4L8.6,10L0.3,1.7c-0.4-0.4-0.4-1,0-1.4s1-0.4,1.4,0L10,8.6l8.3-8.3
	c0.4-0.4,1-0.4,1.4,0s0.4,1,0,1.4L11.4,10L19.7,18.3z"/>
</svg>
