<?xml version="1.0" encoding="utf-8"?>
<!-- Generator: Adobe Illustrator 21.0.2, SVG Export Plug-In . SVG Version: 6.00 Build 0)  -->
<svg version="1.1" id="Слой_1" xmlns="http://www.w3.org/2000/svg" xmlns:xlink="http://www.w3.org/1999/xlink" x="0px" y="0px"
	 viewBox="0 0 11 9" style="enable-background:new 0 0 11 9;" xml:space="preserve">
<path d="M3,4.5L0,6.4V2.6L3,4.5z M7.1,5.1L5.8,5.9C5.7,6,5.6,6,5.5,6S5.3,6,5.2,5.9L3.9,5.1L0.3,7.4C0.2,7.5,0.1,7.5,0,7.5V8
	c0,0.6,0.4,1,1,1h9c0.6,0,1-0.4,1-1V7.5c-0.1,0-0.2,0-0.3-0.1L7.1,5.1z M10,0H1C0.4,0,0,0.4,0,1v0.5c0.1,0,0.2,0,0.3,0.1l5.2,3.3
	l5.2-3.3c0.1-0.1,0.2-0.1,0.3-0.1V1C11,0.4,10.6,0,10,0z M11,6.4V2.6L8,4.5L11,6.4z"/>
</svg>
