<?xml version="1.0" encoding="utf-8"?>
<!-- Generator: Adobe Illustrator 21.0.2, SVG Export Plug-In . SVG Version: 6.00 Build 0)  -->
<svg version="1.1" id="Слой_1" xmlns="http://www.w3.org/2000/svg" xmlns:xlink="http://www.w3.org/1999/xlink" x="0px" y="0px"
	 viewBox="0 0 45 45" style="enable-background:new 0 0 45 45;" xml:space="preserve">
<style type="text/css">
	.st0{fill:#FFFFFF;}
	.st1{fill:#C4C4C4;}
</style>
<circle class="st0" cx="22.5" cy="22.5" r="22.5"/>
<g>
	<path class="st1" d="M22.5,15.9c2.1,0,2.4,0,3.2,0c0.8,0,1.2,0.2,1.5,0.3c0.4,0.1,0.6,0.3,0.9,0.6c0.3,0.3,0.5,0.5,0.6,0.9
		c0.1,0.3,0.2,0.7,0.3,1.5c0,0.8,0,1.1,0,3.2s0,2.4,0,3.2c0,0.8-0.2,1.2-0.3,1.5c-0.1,0.4-0.3,0.6-0.6,0.9c-0.3,0.3-0.5,0.5-0.9,0.6
		c-0.3,0.1-0.7,0.2-1.5,0.3c-0.8,0-1.1,0-3.2,0s-2.4,0-3.2,0c-0.8,0-1.2-0.2-1.5-0.3c-0.4-0.1-0.6-0.3-0.9-0.6
		c-0.3-0.3-0.5-0.5-0.6-0.9c-0.1-0.3-0.2-0.7-0.3-1.5c0-0.8,0-1.1,0-3.2s0-2.4,0-3.2c0-0.8,0.2-1.2,0.3-1.5c0.1-0.4,0.3-0.6,0.6-0.9
		c0.3-0.3,0.5-0.5,0.9-0.6c0.3-0.1,0.7-0.2,1.5-0.3C20.1,15.9,20.4,15.9,22.5,15.9 M22.5,14.5c-2.2,0-2.4,0-3.3,0
		c-0.9,0-1.4,0.2-1.9,0.4c-0.5,0.2-1,0.5-1.4,0.9c-0.4,0.4-0.7,0.9-0.9,1.4c-0.2,0.5-0.3,1.1-0.4,1.9c0,0.9,0,1.1,0,3.3
		c0,2.2,0,2.4,0,3.3c0,0.9,0.2,1.4,0.4,1.9c0.2,0.5,0.5,1,0.9,1.4c0.4,0.4,0.9,0.7,1.4,0.9c0.5,0.2,1.1,0.3,1.9,0.4
		c0.9,0,1.1,0,3.3,0s2.4,0,3.3,0c0.9,0,1.4-0.2,1.9-0.4c0.5-0.2,1-0.5,1.4-0.9c0.4-0.4,0.7-0.9,0.9-1.4c0.2-0.5,0.3-1.1,0.4-1.9
		c0-0.9,0-1.1,0-3.3s0-2.4,0-3.3c0-0.9-0.2-1.4-0.4-1.9c-0.2-0.5-0.5-1-0.9-1.4c-0.4-0.4-0.9-0.7-1.4-0.9c-0.5-0.2-1.1-0.3-1.9-0.4
		C24.9,14.5,24.7,14.5,22.5,14.5L22.5,14.5z"/>
	<path class="st1" d="M22.5,18.4c-2.3,0-4.1,1.8-4.1,4.1s1.8,4.1,4.1,4.1s4.1-1.8,4.1-4.1S24.8,18.4,22.5,18.4z M22.5,25.2
		c-1.5,0-2.7-1.2-2.7-2.7s1.2-2.7,2.7-2.7s2.7,1.2,2.7,2.7S24,25.2,22.5,25.2z"/>
	<circle class="st1" cx="26.8" cy="18.2" r="1"/>
</g>
</svg>
