<?xml version="1.0" encoding="utf-8"?>
<!-- Generator: Adobe Illustrator 21.0.2, SVG Export Plug-In . SVG Version: 6.00 Build 0)  -->
<svg version="1.1" id="Слой_1" xmlns="http://www.w3.org/2000/svg" xmlns:xlink="http://www.w3.org/1999/xlink" x="0px" y="0px"
	 viewBox="0 0 200 48.6" style="enable-background:new 0 0 200 48.6;" xml:space="preserve">
<style type="text/css">
	.st0{fill:none;enable-background:new    ;}
	.st1{fill:url(#SVGID_1_);}
	.st2{fill:url(#SVGID_2_);}
	.st3{fill:url(#SVGID_3_);}
	.st4{fill:url(#SVGID_4_);}
	.st5{fill:url(#SVGID_5_);}
	.st6{fill:#A9121D;}
	.st7{fill:url(#SVGID_6_);}
	.st8{fill:url(#SVGID_7_);}
	.st9{fill:#282322;}
</style>
<path class="st0" d="z"/>
<g>
	<g>
		<linearGradient id="SVGID_1_" gradientUnits="userSpaceOnUse" x1="20.069" y1="11.5385" x2="52.156" y2="11.5385">
			<stop  offset="0" style="stop-color:#7C1518"/>
			<stop  offset="1.274756e-02" style="stop-color:#811519"/>
			<stop  offset="7.730027e-02" style="stop-color:#93131B"/>
			<stop  offset="0.1545" style="stop-color:#9F131C"/>
			<stop  offset="0.2561" style="stop-color:#A7121D"/>
			<stop  offset="0.4759" style="stop-color:#A9121D"/>
			<stop  offset="0.7526" style="stop-color:#A7121D"/>
			<stop  offset="0.8523" style="stop-color:#A0131C"/>
			<stop  offset="0.9233" style="stop-color:#95131B"/>
			<stop  offset="0.9804" style="stop-color:#841419"/>
			<stop  offset="1" style="stop-color:#7C1518"/>
		</linearGradient>
		<path class="st1" d="M32.6,23C32.6,23,32.6,23.1,32.6,23L32.6,23l7.1,0.1h0c0,0,0,0,0-0.1c1.5-6.9,6.2-12.6,12.5-15.5V0
			c-6.8,2.3-12.5,7-16,13.1C32.6,7,26.9,2.3,20.1,0v7.5C26.4,10.4,31.1,16.1,32.6,23z"/>
		<linearGradient id="SVGID_2_" gradientUnits="userSpaceOnUse" x1="14.778" y1="32.4026" x2="14.778" y2="39.1989">
			<stop  offset="0" style="stop-color:#7C1518"/>
			<stop  offset="0.1249" style="stop-color:#8C141A"/>
			<stop  offset="0.2956" style="stop-color:#A9121D"/>
		</linearGradient>
		<rect x="11.1" y="31.7" class="st2" width="7.4" height="2.5"/>
		<linearGradient id="SVGID_3_" gradientUnits="userSpaceOnUse" x1="57.469" y1="32.4026" x2="57.469" y2="39.1989">
			<stop  offset="0" style="stop-color:#7C1518"/>
			<stop  offset="0.1249" style="stop-color:#8C141A"/>
			<stop  offset="0.2956" style="stop-color:#A9121D"/>
		</linearGradient>
		<rect x="53.8" y="31.7" class="st3" width="7.4" height="2.5"/>
		<linearGradient id="SVGID_4_" gradientUnits="userSpaceOnUse" x1="14.778" y1="47.7199" x2="14.778" y2="38.8503">
			<stop  offset="0" style="stop-color:#A9121D"/>
			<stop  offset="0.4629" style="stop-color:#A7121D"/>
			<stop  offset="0.6297" style="stop-color:#A0131C"/>
			<stop  offset="0.7486" style="stop-color:#95131B"/>
			<stop  offset="0.844" style="stop-color:#841419"/>
			<stop  offset="0.8768" style="stop-color:#7C1518"/>
		</linearGradient>
		<rect x="11.1" y="39.9" class="st4" width="7.4" height="8.7"/>
		<linearGradient id="SVGID_5_" gradientUnits="userSpaceOnUse" x1="57.5219" y1="47.7199" x2="57.5219" y2="38.8503">
			<stop  offset="0" style="stop-color:#A9121D"/>
			<stop  offset="0.4629" style="stop-color:#A7121D"/>
			<stop  offset="0.6297" style="stop-color:#A0131C"/>
			<stop  offset="0.7486" style="stop-color:#95131B"/>
			<stop  offset="0.844" style="stop-color:#841419"/>
			<stop  offset="0.8768" style="stop-color:#7C1518"/>
		</linearGradient>
		<rect x="53.8" y="39.9" class="st5" width="7.4" height="8.7"/>
		<polygon class="st6" points="5.7,34.2 0.2,39.6 0,39.9 66.3,39.9 66.3,34.2 		"/>
		<polygon class="st6" points="66.3,25.6 6.2,25.6 0,31.7 66.3,31.7 		"/>
		<g>
			<linearGradient id="SVGID_6_" gradientUnits="userSpaceOnUse" x1="14.7598" y1="14.1916" x2="14.7598" y2="24.0048">
				<stop  offset="0" style="stop-color:#A9121D"/>
				<stop  offset="0.528" style="stop-color:#A7121D"/>
				<stop  offset="0.7181" style="stop-color:#A0131C"/>
				<stop  offset="0.8537" style="stop-color:#95131B"/>
				<stop  offset="0.9626" style="stop-color:#841419"/>
				<stop  offset="1" style="stop-color:#7C1518"/>
			</linearGradient>
			<polygon class="st7" points="18.5,0.1 11.1,7.5 11.1,24.3 18.5,24.3 			"/>
			
				<linearGradient id="SVGID_7_" gradientUnits="userSpaceOnUse" x1="1155.8138" y1="14.1916" x2="1155.8138" y2="24.0048" gradientTransform="matrix(-1 0 0 1 1213.2791 0)">
				<stop  offset="0" style="stop-color:#A9121D"/>
				<stop  offset="0.528" style="stop-color:#A7121D"/>
				<stop  offset="0.7181" style="stop-color:#A0131C"/>
				<stop  offset="0.8537" style="stop-color:#95131B"/>
				<stop  offset="0.9626" style="stop-color:#841419"/>
				<stop  offset="1" style="stop-color:#7C1518"/>
			</linearGradient>
			<polygon class="st8" points="53.8,0.1 61.2,7.5 61.2,24.3 53.8,24.3 			"/>
		</g>
	</g>
	<g>
		<path class="st9" d="M81.1,16.1V6.3h1.3l2,4l1.2,2.6h0.1l1.2-2.6l2-4h1.2v9.8h-1.3V9.5h-0.1l-0.9,1.9l-1.6,3.3h-1l-1.6-3.1
			l-1.1-2.2h-0.1v6.7H81.1z"/>
		<path class="st9" d="M91.7,16.1V6.3h6.5v1.2H93v3.1h4.5v1.2H93V15h5.2v1.2H91.7z"/>
		<path class="st9" d="M99.2,16.1l0.9-3.1c0.1-0.5,0.3-0.9,0.5-1.2c0.2-0.3,0.5-0.6,0.9-0.7c-0.3-0.1-0.6-0.3-0.8-0.6
			c-0.2-0.3-0.4-0.7-0.6-1.2l-0.9-2.9h1.3l0.9,2.8c0.1,0.3,0.2,0.6,0.4,0.8c0.1,0.2,0.3,0.3,0.5,0.4c0.2,0.1,0.3,0.2,0.5,0.2
			c0.2,0,0.3,0,0.5,0h1.1V6.3h1.3v4.2h1.1c0.1,0,0.3,0,0.5,0c0.2,0,0.3-0.1,0.5-0.2c0.2-0.1,0.3-0.2,0.5-0.4
			c0.1-0.2,0.3-0.5,0.4-0.8l0.9-2.8h1.3l-0.9,2.9c-0.1,0.5-0.3,0.9-0.6,1.2c-0.2,0.3-0.5,0.5-0.8,0.6c0.4,0.1,0.7,0.4,0.9,0.7
			c0.2,0.3,0.4,0.8,0.5,1.2l0.9,3.1h-1.3l-0.8-2.9c-0.1-0.3-0.2-0.6-0.3-0.8c-0.1-0.2-0.3-0.4-0.4-0.5c-0.2-0.1-0.3-0.2-0.5-0.2
			c-0.2,0-0.4-0.1-0.6-0.1h-1.2v4.5h-1.3v-4.5h-1.2c-0.2,0-0.4,0-0.6,0.1c-0.2,0-0.3,0.1-0.5,0.2c-0.2,0.1-0.3,0.3-0.4,0.5
			c-0.1,0.2-0.2,0.5-0.3,0.8l-0.9,2.9H99.2z"/>
		<path class="st9" d="M111.5,14.9h0.7c0.2-0.2,0.4-0.4,0.6-0.6c0.2-0.2,0.3-0.5,0.4-0.9c0.1-0.4,0.2-0.8,0.3-1.3
			c0.1-0.5,0.1-1.2,0.1-1.9l0.2-3.9h6.1l0,8.6h0.8v3.3h-1.3v-2.1h-6.7v2.1h-1.3V14.9z M113.9,15h4.8V7.5H115l-0.1,2.8
			c0,0.6-0.1,1.2-0.1,1.7c0,0.5-0.1,0.9-0.2,1.3c-0.1,0.4-0.2,0.7-0.3,1C114.2,14.5,114.1,14.8,113.9,15z"/>
		<path class="st9" d="M121.3,6.3h1.4l2.2,6.1h0.1l2.2-6.1h1.3l-2.9,7.7c-0.2,0.5-0.3,0.8-0.5,1.1c-0.2,0.3-0.3,0.5-0.5,0.7
			c-0.2,0.2-0.4,0.3-0.6,0.4c-0.2,0.1-0.4,0.1-0.6,0.1h-1.1v-1.2h0.8c0.2,0,0.4,0,0.5-0.1c0.2-0.1,0.3-0.3,0.5-0.6l0.1-0.3
			L121.3,6.3z"/>
		<path class="st9" d="M129.3,16.1V6.3h1.3v4.2h4.6V6.3h1.3v9.8h-1.3v-4.4h-4.6v4.4H129.3z"/>
		<path class="st9" d="M137.5,16.1l3.4-9.8h1.3l3.4,9.8h-1.4l-0.8-2.2h-3.9l-0.8,2.2H137.5z M140.1,12.7h3.1l-0.8-2.3l-0.7-2.3h-0.1
			l-0.7,2.3L140.1,12.7z"/>
		<path class="st9" d="M146.6,16.1V6.3h4.1c0.5,0,0.9,0.1,1.2,0.3c0.3,0.2,0.6,0.4,0.9,0.7c0.2,0.3,0.4,0.6,0.5,0.9
			c0.1,0.3,0.2,0.7,0.2,1.1c0,0.3-0.1,0.7-0.2,1c-0.1,0.3-0.3,0.7-0.5,0.9c-0.2,0.3-0.5,0.5-0.9,0.7c-0.3,0.2-0.7,0.3-1.2,0.3h-2.8
			v4H146.6z M147.9,11h2.5c0.5,0,0.9-0.2,1.3-0.5c0.3-0.3,0.5-0.7,0.5-1.3c0-0.5-0.2-1-0.5-1.3c-0.3-0.3-0.7-0.5-1.3-0.5h-2.5V11z"
			/>
		<path class="st9" d="M154.4,12.9V9.5c0-0.5,0.1-0.9,0.3-1.4c0.2-0.4,0.4-0.8,0.7-1.1c0.3-0.3,0.7-0.5,1.1-0.7
			c0.4-0.2,0.9-0.2,1.5-0.2c0.5,0,1,0.1,1.5,0.2c0.4,0.2,0.8,0.4,1.2,0.7c0.3,0.3,0.6,0.6,0.8,1c0.2,0.4,0.3,0.9,0.3,1.4v3.4
			c0,0.5-0.1,1-0.3,1.4c-0.2,0.4-0.4,0.8-0.8,1c-0.3,0.3-0.7,0.5-1.2,0.7c-0.4,0.2-0.9,0.2-1.4,0.2c-0.5,0-1-0.1-1.5-0.2
			c-0.4-0.2-0.8-0.4-1.1-0.7c-0.3-0.3-0.6-0.6-0.7-1C154.5,13.9,154.4,13.4,154.4,12.9z M155.7,12.8c0,0.4,0.1,0.7,0.2,1
			c0.1,0.3,0.3,0.5,0.5,0.7c0.2,0.2,0.5,0.3,0.7,0.4c0.3,0.1,0.6,0.1,0.9,0.1c0.3,0,0.6,0,0.9-0.1c0.3-0.1,0.5-0.2,0.7-0.4
			c0.2-0.2,0.4-0.4,0.5-0.7c0.1-0.3,0.2-0.6,0.2-1V9.7c0-0.4-0.1-0.7-0.2-1c-0.1-0.3-0.3-0.5-0.5-0.7c-0.2-0.2-0.5-0.3-0.7-0.4
			c-0.3-0.1-0.6-0.1-0.9-0.1c-0.3,0-0.6,0-0.9,0.1c-0.3,0.1-0.5,0.2-0.7,0.4c-0.2,0.2-0.4,0.4-0.5,0.7c-0.1,0.3-0.2,0.6-0.2,1V12.8z
			"/>
		<path class="st9" d="M162.2,14.9h0.7c0.2-0.2,0.4-0.4,0.6-0.6c0.2-0.2,0.3-0.5,0.4-0.9c0.1-0.4,0.2-0.8,0.3-1.3
			c0.1-0.5,0.1-1.2,0.1-1.9l0.2-3.9h6.1l0,8.6h0.8v3.3h-1.3v-2.1h-6.7v2.1h-1.3V14.9z M164.6,15h4.8V7.5h-3.6l-0.1,2.8
			c0,0.6-0.1,1.2-0.1,1.7c0,0.5-0.1,0.9-0.2,1.3c-0.1,0.4-0.2,0.7-0.3,1C164.9,14.5,164.8,14.8,164.6,15z"/>
		<path class="st9" d="M172.7,16.1V6.3h1.3v4.2h4.6V6.3h1.3v9.8h-1.3v-4.4H174v4.4H172.7z"/>
		<path class="st9" d="M181.5,16.1V6.3h1.3v4.1h2.7c0.4,0,0.8,0.1,1.2,0.2c0.3,0.2,0.6,0.4,0.9,0.7c0.2,0.3,0.4,0.6,0.6,0.9
			c0.1,0.3,0.2,0.7,0.2,1c0,0.4-0.1,0.7-0.2,1c-0.1,0.3-0.3,0.7-0.5,0.9c-0.2,0.3-0.5,0.5-0.9,0.7c-0.3,0.2-0.8,0.3-1.2,0.3H181.5z
			 M182.8,14.9h2.5c0.5,0,0.9-0.2,1.3-0.5c0.3-0.3,0.5-0.7,0.5-1.3c0-0.3,0-0.5-0.1-0.7c-0.1-0.2-0.2-0.4-0.4-0.5
			c-0.2-0.1-0.4-0.3-0.6-0.3c-0.2-0.1-0.5-0.1-0.7-0.1h-2.5V14.9z M189.5,16.1V6.3h1.3v9.8H189.5z"/>
		<path class="st9" d="M192.5,16.1V6.3h1.3v7.5h0.1l1.3-2l3.6-5.5h1.3v9.8h-1.3V8.5h-0.1l-1.4,2.3l-3.4,5.3H192.5z M194,4.1h1.1
			c0,0.1,0,0.2,0.1,0.3c0,0.1,0.1,0.2,0.2,0.3c0.1,0.1,0.2,0.2,0.3,0.2c0.1,0.1,0.3,0.1,0.4,0.1c0.2,0,0.3,0,0.4-0.1
			c0.1-0.1,0.2-0.1,0.3-0.2c0.1-0.1,0.1-0.2,0.2-0.3c0-0.1,0.1-0.2,0.1-0.3h1.1c0,0.2-0.1,0.4-0.1,0.6c-0.1,0.2-0.2,0.4-0.3,0.6
			c-0.2,0.2-0.4,0.3-0.6,0.5c-0.3,0.1-0.6,0.2-1,0.2c-0.4,0-0.7-0.1-1-0.2c-0.3-0.1-0.5-0.3-0.6-0.5c-0.2-0.2-0.3-0.4-0.3-0.6
			C194.1,4.4,194,4.2,194,4.1z"/>
		<path class="st9" d="M81.2,26.6v-1.4c0-0.5,0.1-0.9,0.3-1.4c0.2-0.4,0.4-0.8,0.8-1.1c0.3-0.3,0.8-0.6,1.2-0.8
			c0.5-0.2,1-0.3,1.7-0.3v-0.4h1.3v0.4c0.6,0,1.2,0.1,1.7,0.3c0.5,0.2,0.9,0.5,1.2,0.8c0.3,0.3,0.6,0.7,0.8,1.1
			c0.2,0.4,0.3,0.9,0.3,1.4v1.3c0,0.5-0.1,1-0.3,1.4c-0.2,0.4-0.4,0.8-0.8,1.2c-0.3,0.3-0.7,0.6-1.2,0.8c-0.5,0.2-1.1,0.3-1.7,0.3
			v0.8h-1.3v-0.8c-0.6,0-1.2-0.1-1.7-0.3c-0.5-0.2-0.9-0.5-1.2-0.8c-0.3-0.3-0.6-0.7-0.8-1.1C81.3,27.6,81.2,27.1,81.2,26.6z
			 M82.5,26.6c0,0.4,0.1,0.7,0.2,1.1c0.1,0.3,0.3,0.6,0.5,0.8c0.2,0.2,0.5,0.4,0.8,0.5c0.3,0.1,0.7,0.2,1.1,0.2v-6.3
			c-0.4,0-0.8,0.1-1.1,0.2c-0.3,0.1-0.6,0.3-0.8,0.5c-0.2,0.2-0.4,0.5-0.5,0.8c-0.1,0.3-0.2,0.7-0.2,1V26.6z M86.5,29.1
			c0.4,0,0.7-0.1,1.1-0.2c0.3-0.1,0.6-0.3,0.8-0.5c0.2-0.2,0.4-0.5,0.5-0.8c0.1-0.3,0.2-0.7,0.2-1.1v-1.2c0-0.4-0.1-0.7-0.2-1
			c-0.1-0.3-0.3-0.6-0.5-0.8c-0.2-0.2-0.5-0.4-0.8-0.5c-0.3-0.1-0.7-0.2-1.1-0.2V29.1z"/>
		<path class="st9" d="M92.1,31.1v-9.8h1.3v7.5h0.1l1.3-2l3.6-5.5h1.3v9.8h-1.3v-7.6h-0.1l-1.4,2.3l-3.4,5.3H92.1z"/>
		<path class="st9" d="M101.2,31.1v-9.8h1.3v4.2h4.6v-4.2h1.3v9.8h-1.3v-4.4h-4.6v4.4H101.2z"/>
		<path class="st9" d="M109.4,31.1l3.4-9.8h1.3l3.4,9.8h-1.4l-0.8-2.2h-3.9l-0.8,2.2H109.4z M112,27.7h3.1l-0.8-2.3l-0.7-2.3h-0.1
			l-0.7,2.3L112,27.7z"/>
		<path class="st9" d="M118.5,31.1v-9.8h1.3v4.2h4.6v-4.2h1.3v9.8h-1.3v-4.4h-4.6v4.4H118.5z"/>
		<path class="st9" d="M127.3,28v-3.6c0-0.5,0.1-0.9,0.3-1.3c0.2-0.4,0.4-0.7,0.8-1c0.3-0.3,0.7-0.5,1.1-0.6
			c0.4-0.1,0.9-0.2,1.3-0.2c0.5,0,1,0.1,1.5,0.2c0.5,0.1,0.9,0.4,1.3,0.7l-0.7,1c-0.3-0.2-0.6-0.4-1-0.5c-0.4-0.1-0.8-0.2-1.1-0.2
			c-0.3,0-0.5,0-0.8,0.1c-0.3,0.1-0.5,0.2-0.7,0.4c-0.2,0.2-0.4,0.4-0.5,0.7c-0.1,0.3-0.2,0.6-0.2,1v3.1c0,0.4,0.1,0.7,0.2,1
			c0.1,0.3,0.3,0.5,0.5,0.7c0.2,0.2,0.4,0.3,0.7,0.4c0.3,0.1,0.5,0.1,0.8,0.1c0.4,0,0.7-0.1,1.1-0.2c0.4-0.1,0.7-0.3,1-0.5l0.6,1
			c-0.3,0.2-0.7,0.5-1.2,0.6c-0.5,0.2-1,0.3-1.6,0.3c-0.5,0-0.9-0.1-1.4-0.2c-0.4-0.1-0.8-0.4-1.1-0.6c-0.3-0.3-0.6-0.6-0.8-1
			C127.4,29,127.3,28.5,127.3,28z"/>
		<path class="st9" d="M134.7,27.9v-3.4c0-0.5,0.1-0.9,0.3-1.4c0.2-0.4,0.4-0.8,0.7-1.1c0.3-0.3,0.7-0.5,1.1-0.7
			c0.4-0.2,0.9-0.2,1.5-0.2c0.5,0,1,0.1,1.5,0.2c0.4,0.2,0.8,0.4,1.2,0.7c0.3,0.3,0.6,0.6,0.8,1c0.2,0.4,0.3,0.9,0.3,1.4v3.4
			c0,0.5-0.1,1-0.3,1.4c-0.2,0.4-0.4,0.8-0.8,1c-0.3,0.3-0.7,0.5-1.2,0.7c-0.4,0.2-0.9,0.2-1.4,0.2c-0.5,0-1-0.1-1.5-0.2
			c-0.4-0.2-0.8-0.4-1.1-0.7c-0.3-0.3-0.6-0.6-0.7-1C134.8,28.9,134.7,28.4,134.7,27.9z M136.1,27.8c0,0.4,0.1,0.7,0.2,1
			c0.1,0.3,0.3,0.5,0.5,0.7c0.2,0.2,0.5,0.3,0.7,0.4c0.3,0.1,0.6,0.1,0.9,0.1c0.3,0,0.6,0,0.9-0.1c0.3-0.1,0.5-0.2,0.7-0.4
			c0.2-0.2,0.4-0.4,0.5-0.7c0.1-0.3,0.2-0.6,0.2-1v-3.1c0-0.4-0.1-0.7-0.2-1c-0.1-0.3-0.3-0.5-0.5-0.7c-0.2-0.2-0.5-0.3-0.7-0.4
			c-0.3-0.1-0.6-0.1-0.9-0.1c-0.3,0-0.6,0-0.9,0.1c-0.3,0.1-0.5,0.2-0.7,0.4c-0.2,0.2-0.4,0.4-0.5,0.7c-0.1,0.3-0.2,0.6-0.2,1V27.8z
			"/>
		<path class="st9" d="M143.5,31.1v-9.8h4.1c0.4,0,0.8,0.1,1.2,0.2c0.3,0.1,0.6,0.3,0.9,0.6c0.2,0.2,0.4,0.5,0.5,0.8
			c0.1,0.3,0.2,0.6,0.2,1c0,0.4-0.1,0.8-0.3,1.1c-0.2,0.4-0.5,0.7-0.9,0.9c0.5,0.2,0.8,0.6,1,1c0.2,0.4,0.3,0.8,0.3,1.3
			c0,0.4-0.1,0.7-0.2,1c-0.1,0.3-0.3,0.6-0.5,0.9c-0.2,0.3-0.5,0.5-0.9,0.7c-0.4,0.2-0.8,0.3-1.2,0.3H143.5z M144.8,25.4h2.6
			c0.2,0,0.4,0,0.6-0.1c0.2-0.1,0.4-0.2,0.5-0.3c0.1-0.1,0.3-0.3,0.4-0.5c0.1-0.2,0.1-0.4,0.1-0.6c0-0.5-0.2-0.9-0.5-1.1
			c-0.3-0.2-0.7-0.3-1.3-0.3h-2.5V25.4z M144.8,30h2.7c0.6,0,1-0.1,1.3-0.4c0.3-0.3,0.4-0.7,0.4-1.3c0-0.3,0-0.5-0.1-0.7
			c-0.1-0.2-0.2-0.4-0.4-0.5c-0.2-0.1-0.4-0.3-0.6-0.3c-0.2-0.1-0.4-0.1-0.7-0.1h-2.6V30z"/>
		<path class="st9" d="M152,31.1v-9.8h1.3v4.1h2.7c0.4,0,0.8,0.1,1.2,0.2c0.3,0.2,0.6,0.4,0.9,0.7c0.2,0.3,0.4,0.6,0.6,0.9
			c0.1,0.3,0.2,0.7,0.2,1c0,0.4-0.1,0.7-0.2,1c-0.1,0.3-0.3,0.7-0.5,0.9c-0.2,0.3-0.5,0.5-0.9,0.7c-0.3,0.2-0.8,0.3-1.2,0.3H152z
			 M153.3,29.9h2.5c0.5,0,0.9-0.2,1.3-0.5c0.3-0.3,0.5-0.7,0.5-1.3c0-0.3,0-0.5-0.1-0.7c-0.1-0.2-0.2-0.4-0.4-0.5
			c-0.2-0.1-0.4-0.3-0.6-0.3c-0.2-0.1-0.5-0.1-0.7-0.1h-2.5V29.9z M160,31.1v-9.8h1.3v9.8H160z"/>
		<path class="st9" d="M163,31.1v-9.8h1.3v7.5h0.1l1.3-2l3.6-5.5h1.3v9.8h-1.3v-7.6h-0.1l-1.4,2.3l-3.4,5.3H163z M164.5,19h1.1
			c0,0.1,0,0.2,0.1,0.3c0,0.1,0.1,0.2,0.2,0.3c0.1,0.1,0.2,0.2,0.3,0.2c0.1,0.1,0.3,0.1,0.4,0.1c0.2,0,0.3,0,0.4-0.1
			c0.1-0.1,0.2-0.1,0.3-0.2c0.1-0.1,0.1-0.2,0.2-0.3s0.1-0.2,0.1-0.3h1.1c0,0.2-0.1,0.4-0.1,0.6c-0.1,0.2-0.2,0.4-0.3,0.6
			c-0.2,0.2-0.4,0.3-0.6,0.5c-0.3,0.1-0.6,0.2-1,0.2c-0.4,0-0.7-0.1-1-0.2c-0.3-0.1-0.5-0.3-0.6-0.5c-0.2-0.2-0.3-0.4-0.3-0.6
			C164.6,19.4,164.5,19.2,164.5,19z"/>
		<path class="st9" d="M81.1,46.1v-9.8h1.3v8.7H87v-8.7h1.3v8.6l0.8,0v3.3h-1.3v-2.1H81.1z"/>
		<path class="st9" d="M90.2,46.1v-9.8h6.5v1.2h-5.2v3.1H96v1.2h-4.5v3.2h5.2v1.2H90.2z"/>
		<path class="st9" d="M98.1,46.1v-9.8h1.3v4.2h4.6v-4.2h1.3v9.8H104v-4.4h-4.6v4.4H98.1z"/>
		<path class="st9" d="M106.3,37.5v-1.2h7v1.2h-2.8v8.6h-1.3v-8.6H106.3z"/>
		<path class="st9" d="M114.3,46.1v-9.8h4.1c0.5,0,0.9,0.1,1.2,0.3c0.3,0.2,0.6,0.4,0.9,0.7c0.2,0.3,0.4,0.6,0.5,0.9
			c0.1,0.3,0.2,0.7,0.2,1.1c0,0.3-0.1,0.7-0.2,1c-0.1,0.3-0.3,0.7-0.5,0.9c-0.2,0.3-0.5,0.5-0.9,0.7c-0.3,0.2-0.7,0.3-1.2,0.3h-2.8
			v4H114.3z M115.6,41h2.5c0.5,0,0.9-0.2,1.3-0.5c0.3-0.3,0.5-0.7,0.5-1.3c0-0.5-0.2-1-0.5-1.3c-0.3-0.3-0.7-0.5-1.3-0.5h-2.5V41z"
			/>
	</g>
</g>
</svg>
