<?xml version="1.0" encoding="utf-8"?>
<!-- Generator: Adobe Illustrator 21.0.2, SVG Export Plug-In . SVG Version: 6.00 Build 0)  -->
<svg version="1.1" id="Слой_1" xmlns="http://www.w3.org/2000/svg" xmlns:xlink="http://www.w3.org/1999/xlink" x="0px" y="0px"
	 viewBox="0 0 13 13" style="enable-background:new 0 0 13 13;" xml:space="preserve">
<path d="M7,1.8c2,0.5,3.6,2.1,4.1,4.1c0.1,0.5-0.6,0.7-0.8,0.2C9.9,4.4,8.6,3.1,6.9,2.6C6.4,2.5,6.6,1.7,7,1.8z M13,5.5
	C12.3,2.8,10.2,0.7,7.6,0C7-0.1,6.9,0.7,7.3,0.8c2.4,0.6,4.2,2.5,4.9,4.9C12.3,6.1,13.1,5.9,13,5.5z M10.5,8.2
	c-0.4-0.4-1.1-0.4-1.5,0L7.9,9.4C6.2,8.6,4.5,6.9,3.6,5.1l1.2-1.2c0.4-0.4,0.4-1.1,0-1.4L3.3,1C2.9,0.7,2.3,0.7,1.9,1L0.4,2.5
	c-2.5,2.5,7.5,12.6,10.1,10l1.5-1.5c0.4-0.4,0.4-1.1,0-1.5L10.5,8.2z"/>
</svg>
