<?xml version="1.0" encoding="utf-8"?>
<!-- Generator: Adobe Illustrator 21.0.2, SVG Export Plug-In . SVG Version: 6.00 Build 0)  -->
<svg version="1.1" id="Слой_1" xmlns="http://www.w3.org/2000/svg" xmlns:xlink="http://www.w3.org/1999/xlink" x="0px" y="0px"
	 viewBox="0 0 37.9 37.8" style="enable-background:new 0 0 37.9 37.8;" xml:space="preserve">
<style type="text/css">
	.st0{fill:#E0DFDF;}
</style>
<path class="st0" d="M20.1,6.1c0.1-0.5,0.7-0.8,1.2-0.7c5.3,1.5,9.5,5.7,11,11c0.1,0.5-0.2,1.1-0.7,1.2c-0.1,0-0.2,0-0.3,0
	c-0.4,0-0.8-0.3-1-0.7c-1.3-4.6-5-8.3-9.6-9.6C20.3,7.2,20,6.7,20.1,6.1z M22.2,2C28.7,3.8,33.9,9,35.7,15.6c0.1,0.4,0.5,0.7,1,0.7
	c0.1,0,0.2,0,0.3,0c0.5-0.1,0.8-0.7,0.7-1.2c-2-7.3-7.7-13-15-14.9c-0.5-0.1-1.1,0.2-1.2,0.7C21.3,1.3,21.7,1.9,22.2,2z M37.9,29.1
	c0,1.1-0.4,2.1-1.2,2.9l-4.3,4.3c-0.8,0.8-2.1,1.5-4,1.5c-1.5,0-3.5-0.5-6-1.7c-3.7-1.8-7.9-5-11.8-8.9C3,19.5-2.8,9.8,1.5,5.5
	l4.3-4.4C7.4-0.3,9.9-0.3,11.4,1c0,0,0,0,0.1,0.1l4.3,4.5C16.5,6.1,17,7.2,17,8.3c0,1.1-0.5,2.1-1.3,2.8L12.8,14
	c2.3,4.5,6.6,8.8,10.9,11l2.9-2.9c1.6-1.6,4.1-1.6,5.7,0l4.3,4.3C37.5,27.1,37.9,28.1,37.9,29.1z M35.9,29.1c0-0.5-0.2-1-0.6-1.4
	L31,23.4c-0.8-0.8-2.1-0.8-2.9,0l-3.4,3.4c-0.3,0.3-0.7,0.4-1.1,0.2c-5.2-2.3-10.4-7.5-12.9-12.9c-0.2-0.4-0.1-0.8,0.2-1.1l3.4-3.4
	C14.8,9.3,15,8.8,15,8.3c0-0.5-0.2-1-0.6-1.3l-4.3-4.5C9.7,2.2,9.2,2,8.6,2C8.1,2,7.5,2.2,7.1,2.5L2.9,6.9c-1.8,1.8-0.4,5.6,0.6,7.6
	c1.7,3.4,4.8,7.5,8.5,11.3c3.8,3.8,7.8,6.8,11.3,8.5c2.5,1.2,5.9,2.3,7.7,0.6l4.3-4.3C35.7,30.2,35.9,29.7,35.9,29.1z"/>
</svg>
