<?xml version="1.0" encoding="utf-8"?>
<!-- Generator: Adobe Illustrator 21.0.2, SVG Export Plug-In . SVG Version: 6.00 Build 0)  -->
<svg version="1.1" id="Слой_1" xmlns="http://www.w3.org/2000/svg" xmlns:xlink="http://www.w3.org/1999/xlink" x="0px" y="0px"
	 viewBox="0 0 124 100" style="enable-background:new 0 0 124 100;" xml:space="preserve">
<style type="text/css">
	.st0{opacity:0.26;fill:#AA1A17;}
</style>
<path class="st0" d="M121,35.5h-4.5c-1.5-3.9-3.5-7.6-6.1-11L112,3.2c0.1-1.2-0.6-2.4-1.7-2.9c-1.1-0.5-2.4-0.3-3.3,0.5L95.2,11.6
	C87.5,7.4,78.5,5,69,5C42.5,5,20.7,23.5,19.1,46.8c-5.4-0.8-11.6-3.7-12.9-6.2c-0.2-0.4-0.4-0.9,0.2-1.8c1.7-2.3,2.9-3.2,3.5-3.4
	c0,0.1,0.1,0.2,0.1,0.4c0.4,1.6,2,2.6,3.6,2.2c1.6-0.4,2.6-2,2.2-3.6c-0.7-2.7-2.4-4.5-4.7-4.9c-2.2-0.4-5.7,0.3-9.7,5.9
	c-1.8,2.5-2.1,5.4-0.7,8c2.7,5.2,11.6,8.7,18.3,9.5c1,12.3,7.9,23.9,18.8,31.6V97c0,1.7,1.3,3,3,3h18c1.5,0,2.8-1.1,3-2.6l0.5-3.8
	c2.2,0.2,4.3,0.4,6.5,0.4c1.9,0,3.7-0.1,5.5-0.3l0.5,3.7c0.2,1.5,1.5,2.6,3,2.6h18c1.7,0,3-1.3,3-3V85.1c8.2-5.5,14.3-13,17.5-21.6
	h4.5c1.7,0,3-1.3,3-3v-22C124,36.8,122.7,35.5,121,35.5z M105.4,10.4l-0.6,8.1c-1.4-1.3-2.8-2.4-4.4-3.5L105.4,10.4z M118,57.5h-3.7
	c0,0-0.1,0-0.1,0c-0.1,0-0.2,0-0.4,0c-0.1,0-0.2,0-0.2,0c-0.1,0-0.2,0.1-0.3,0.1c-0.1,0-0.2,0.1-0.2,0.1c-0.1,0-0.2,0.1-0.3,0.1
	c-0.1,0-0.1,0.1-0.2,0.1c-0.1,0.1-0.2,0.1-0.2,0.2c-0.1,0.1-0.1,0.1-0.2,0.2c-0.1,0.1-0.1,0.2-0.2,0.2c-0.1,0.1-0.1,0.2-0.2,0.2
	c0,0.1-0.1,0.2-0.1,0.2c0,0.1-0.1,0.2-0.1,0.3c0,0,0,0.1-0.1,0.1c-2.7,8.6-8.7,16.1-17,21.3c0,0,0,0,0,0c-0.1,0.1-0.2,0.2-0.3,0.3
	c0,0-0.1,0.1-0.1,0.1c-0.1,0.1-0.2,0.2-0.3,0.3c0,0-0.1,0.1-0.1,0.1c-0.1,0.1-0.1,0.2-0.2,0.4c0,0-0.1,0.1-0.1,0.1
	c-0.1,0.1-0.1,0.2-0.1,0.4c0,0.1,0,0.1-0.1,0.2c0,0.1,0,0.2,0,0.3c0,0.1,0,0.2,0,0.3c0,0,0,0,0,0.1V94H80.6L79,81.6
	c-0.2-1.6-1.7-2.8-3.4-2.6c-1.6,0.2-2.8,1.7-2.6,3.4l0.7,5.4c-3.5,0.3-7,0.3-10.5-0.1l0.7-5.3c0.2-1.6-0.9-3.2-2.6-3.4
	c-1.6-0.2-3.2,0.9-3.4,2.6L56.4,94H44V82.8c0,0,0,0,0,0c0-0.2,0-0.3,0-0.5c0-0.2-0.1-0.4-0.2-0.6c0,0,0,0,0-0.1
	c-0.1-0.1-0.1-0.2-0.2-0.4c0-0.1-0.1-0.1-0.1-0.2c-0.1-0.2-0.2-0.3-0.4-0.4c0,0,0,0,0,0c-0.1-0.1-0.3-0.2-0.4-0.3c0,0,0,0,0,0
	C31.4,73,25,61.7,25,49.5C25,28.3,44.7,11,69,11c19.8,0,37.3,11.7,42.5,28.4c0,0,0,0.1,0.1,0.1c0,0.1,0.1,0.2,0.1,0.3
	c0,0.1,0.1,0.1,0.1,0.2c0.1,0.1,0.1,0.2,0.2,0.3c0,0.1,0.1,0.1,0.1,0.2c0.1,0.1,0.2,0.2,0.3,0.3c0.1,0,0.1,0.1,0.2,0.1
	c0.1,0.1,0.2,0.1,0.3,0.2c0.1,0,0.1,0.1,0.2,0.1c0.1,0.1,0.2,0.1,0.4,0.2c0.1,0,0.1,0,0.2,0.1c0.1,0,0.3,0.1,0.4,0.1
	c0.1,0,0.1,0,0.2,0c0.1,0,0.1,0,0.2,0h3.7V57.5z M83.7,22.1c-0.5,1.6-2.2,2.4-3.8,1.9c-6.9-2.3-14.8-2.3-21.7,0
	c-0.3,0.1-0.6,0.2-1,0.2c-1.3,0-2.4-0.8-2.8-2c-0.5-1.6,0.3-3.3,1.9-3.8c4.1-1.4,8.4-2.1,12.8-2.1c4.4,0,8.7,0.7,12.8,2.1
	C83.4,18.9,84.2,20.6,83.7,22.1z M101,36.5c0,1.9-1.6,3.5-3.5,3.5S94,38.4,94,36.5s1.6-3.5,3.5-3.5S101,34.6,101,36.5z"/>
</svg>
