<?xml version="1.0" encoding="utf-8"?>
<!-- Generator: Adobe Illustrator 21.0.2, SVG Export Plug-In . SVG Version: 6.00 Build 0)  -->
<svg width="82" height="125" version="1.1" id="Слой_1" xmlns="http://www.w3.org/2000/svg" xmlns:xlink="http://www.w3.org/1999/xlink" x="0px" y="0px"
	 viewBox="0 0 82 124.1" style="enable-background:new 0 0 82 124.1;" xml:space="preserve">
<style type="text/css">
	.st0{opacity:0.26;fill:#FFFFFF;enable-background:new    ;}
</style>
<path class="st0" d="M69,41c0,1.7-1.3,3-3,3s-3-1.3-3-3c0-12.1-9.9-22-22-22c-1.7,0-3-1.3-3-3s1.3-3,3-3C56.4,13,69,25.6,69,41z
	 M82,41c0,10.8-4.2,21-11.7,28.7c-6.3,6.4-9.8,14.8-9.8,23.6V105c0,4.2-2.9,7.7-6.8,8.7C52.5,119.6,47.2,124,41,124
	s-11.5-4.4-12.7-10.3c-3.9-1-6.8-4.5-6.8-8.7V93.3c0-8.7-3.5-17.1-9.9-23.7C3.5,61.2-0.7,49.7,0.1,38.1C1.5,17.8,17.8,1.5,38,0.1
	C49.6-0.7,60.5,3.2,68.9,11C77.2,18.7,82,29.7,82,41z M47.3,114H34.7c1.1,2.4,3.5,4,6.3,4S46.2,116.4,47.3,114z M76,41
	c0-9.7-4.1-19-11.1-25.6C58.3,9.3,49.9,6,41,6c-0.9,0-1.7,0-2.6,0.1C21.2,7.3,7.3,21.2,6.1,38.5c-0.7,10,2.9,19.8,9.8,26.9
	C22.3,72,26.3,80.3,27.3,89h18.2c1.7,0,3,1.3,3,3s-1.3,3-3,3h-18v10c0,1.7,1.3,3,3,3h21c1.7,0,3-1.3,3-3V93.3
	c0-10.3,4.1-20.2,11.5-27.8C72.4,58.9,76,50.2,76,41z"/>
</svg>
