<?xml version="1.0" encoding="utf-8"?>
<!-- Generator: Adobe Illustrator 21.0.2, SVG Export Plug-In . SVG Version: 6.00 Build 0)  -->
<svg version="1.1" id="Слой_1" xmlns="http://www.w3.org/2000/svg" xmlns:xlink="http://www.w3.org/1999/xlink" x="0px" y="0px"
	 viewBox="0 0 101 124" style="enable-background:new 0 0 101 124;" xml:space="preserve">
<style type="text/css">
	.st0{opacity:0.26;fill:#AA1A17;}
</style>
<path class="st0" d="M88,16h-3v-3c0-7.2-5.8-13-13-13H13C5.8,0,0,5.8,0,13v82c0,7.2,5.8,13,13,13h3v3c0,7.2,5.8,13,13,13h59
	c7.2,0,13-5.8,13-13V29C101,21.8,95.2,16,88,16z M6,95V13c0-3.9,3.1-7,7-7h59c3.9,0,7,3.1,7,7v82c0,3.9-3.1,7-7,7H13
	C9.1,102,6,98.9,6,95z M95,111c0,3.9-3.1,7-7,7H29c-3.9,0-7-3.1-7-7v-3h50c7.2,0,13-5.8,13-13V22h3c3.9,0,7,3.1,7,7V111z M37,48
	c2.8,0,5-2.2,5-5V20c0-2.8-2.2-5-5-5H20c-2.8,0-5,2.2-5,5v23c0,2.8,2.2,5,5,5H37z M21,21h15v21H21V21z M19.5,90c-1.7,0-3-1.3-3-3
	s1.3-3,3-3h46c1.7,0,3,1.3,3,3s-1.3,3-3,3H19.5z M49.5,33.5c0-1.7,1.3-3,3-3h13c1.7,0,3,1.3,3,3s-1.3,3-3,3h-13
	C50.8,36.5,49.5,35.2,49.5,33.5z M49.5,51.3c0-1.7,1.3-3,3-3h13c1.7,0,3,1.3,3,3s-1.3,3-3,3h-13C50.8,54.3,49.5,53,49.5,51.3z
	 M68.5,69.2c0,1.7-1.3,3-3,3h-46c-1.7,0-3-1.3-3-3s1.3-3,3-3h46C67.2,66.2,68.5,67.5,68.5,69.2z"/>
</svg>
