<?xml version="1.0" encoding="utf-8"?>
<!-- Generator: Adobe Illustrator 21.0.2, SVG Export Plug-In . SVG Version: 6.00 Build 0)  -->
<svg version="1.1" id="Слой_1" xmlns="http://www.w3.org/2000/svg" xmlns:xlink="http://www.w3.org/1999/xlink" x="0px" y="0px"
	 viewBox="0 0 45 45" style="enable-background:new 0 0 45 45;" xml:space="preserve">
<style type="text/css">
	.st0{fill:#FFFFFF;}
	.st1{fill:#C4C4C4;}
</style>
<circle class="st0" cx="22.5" cy="22.5" r="22.5"/>
<path class="st1" d="M32.1,17.7c-0.2-0.9-0.9-1.5-1.8-1.8c-1.6-0.4-7.8-0.4-7.8-0.4s-6.3,0-7.8,0.4c-0.9,0.2-1.5,0.9-1.8,1.8
	c-0.4,1.6-0.4,4.8-0.4,4.8s0,3.3,0.4,4.8c0.2,0.9,0.9,1.5,1.8,1.8c1.6,0.4,7.8,0.4,7.8,0.4s6.3,0,7.8-0.4c0.9-0.2,1.5-0.9,1.8-1.8
	c0.4-1.6,0.4-4.8,0.4-4.8S32.5,19.2,32.1,17.7z M20.5,25.5v-5.9l5.2,3L20.5,25.5z"/>
</svg>
