<svg id="Слой_1" xmlns="http://www.w3.org/2000/svg" viewBox="0 0 200 48.6"><style>.st0{fill:none;enable-background:new}.st1{fill:url(#SVGID_1_)}.st2{fill:url(#SVGID_2_)}.st3{fill:url(#SVGID_3_)}.st4{fill:url(#SVGID_4_)}.st5{fill:url(#SVGID_5_)}.st6{fill:#a9121d}.st7{fill:url(#SVGID_6_)}.st8{fill:url(#SVGID_7_)}.st9{fill:#282322}</style><linearGradient id="SVGID_1_" gradientUnits="userSpaceOnUse" x1="20.069" y1="11.539" x2="52.156" y2="11.539"><stop offset="0" stop-color="#7c1518"/><stop offset=".013" stop-color="#811519"/><stop offset=".077" stop-color="#93131b"/><stop offset=".154" stop-color="#9f131c"/><stop offset=".256" stop-color="#a7121d"/><stop offset=".476" stop-color="#a9121d"/><stop offset=".753" stop-color="#a7121d"/><stop offset=".852" stop-color="#a0131c"/><stop offset=".923" stop-color="#95131b"/><stop offset=".98" stop-color="#841419"/><stop offset="1" stop-color="#7c1518"/></linearGradient><path class="st1" d="M32.6 23s0 .1 0 0l7.1.1V23c1.5-6.9 6.2-12.6 12.5-15.5V0c-6.8 2.3-12.5 7-16 13.1C32.6 7 26.9 2.3 20.1 0v7.5c6.3 2.9 11 8.6 12.5 15.5z"/><linearGradient id="SVGID_2_" gradientUnits="userSpaceOnUse" x1="14.778" y1="32.403" x2="14.778" y2="39.199"><stop offset="0" stop-color="#7c1518"/><stop offset=".125" stop-color="#8c141a"/><stop offset=".296" stop-color="#a9121d"/></linearGradient><path class="st2" d="M11.1 31.7h7.4v2.5h-7.4z"/><linearGradient id="SVGID_3_" gradientUnits="userSpaceOnUse" x1="57.469" y1="32.403" x2="57.469" y2="39.199"><stop offset="0" stop-color="#7c1518"/><stop offset=".125" stop-color="#8c141a"/><stop offset=".296" stop-color="#a9121d"/></linearGradient><path class="st3" d="M53.8 31.7h7.4v2.5h-7.4z"/><linearGradient id="SVGID_4_" gradientUnits="userSpaceOnUse" x1="14.778" y1="47.72" x2="14.778" y2="38.85"><stop offset="0" stop-color="#a9121d"/><stop offset=".463" stop-color="#a7121d"/><stop offset=".63" stop-color="#a0131c"/><stop offset=".749" stop-color="#95131b"/><stop offset=".844" stop-color="#841419"/><stop offset=".877" stop-color="#7c1518"/></linearGradient><path class="st4" d="M11.1 39.9h7.4v8.7h-7.4z"/><linearGradient id="SVGID_5_" gradientUnits="userSpaceOnUse" x1="57.522" y1="47.72" x2="57.522" y2="38.85"><stop offset="0" stop-color="#a9121d"/><stop offset=".463" stop-color="#a7121d"/><stop offset=".63" stop-color="#a0131c"/><stop offset=".749" stop-color="#95131b"/><stop offset=".844" stop-color="#841419"/><stop offset=".877" stop-color="#7c1518"/></linearGradient><path class="st5" d="M53.8 39.9h7.4v8.7h-7.4z"/><path class="st6" d="M5.7 34.2L.2 39.6l-.2.3h66.3v-5.7zm60.6-8.6H6.2L0 31.7h66.3z"/><linearGradient id="SVGID_6_" gradientUnits="userSpaceOnUse" x1="14.76" y1="14.192" x2="14.76" y2="24.005"><stop offset="0" stop-color="#a9121d"/><stop offset=".528" stop-color="#a7121d"/><stop offset=".718" stop-color="#a0131c"/><stop offset=".854" stop-color="#95131b"/><stop offset=".963" stop-color="#841419"/><stop offset="1" stop-color="#7c1518"/></linearGradient><path class="st7" d="M18.5.1l-7.4 7.4v16.8h7.4z"/><linearGradient id="SVGID_7_" gradientUnits="userSpaceOnUse" x1="1155.814" y1="14.192" x2="1155.814" y2="24.005" gradientTransform="matrix(-1 0 0 1 1213.28 0)"><stop offset="0" stop-color="#a9121d"/><stop offset=".528" stop-color="#a7121d"/><stop offset=".718" stop-color="#a0131c"/><stop offset=".854" stop-color="#95131b"/><stop offset=".963" stop-color="#841419"/><stop offset="1" stop-color="#7c1518"/></linearGradient><path class="st8" d="M53.8.1l7.4 7.4v16.8h-7.4z"/><path class="st9" d="M81.1 16.1V6.3h1.3l2 4 1.2 2.6h.1l1.2-2.6 2-4h1.2v9.8h-1.3V9.5h-.1l-.9 1.9-1.6 3.3h-1l-1.6-3.1-1.1-2.2h-.1v6.7h-1.3zm10.6 0V6.3h6.5v1.2H93v3.1h4.5v1.2H93V15h5.2v1.2h-6.5zm7.5 0l.9-3.1c.1-.5.3-.9.5-1.2.2-.3.5-.6.9-.7-.3-.1-.6-.3-.8-.6-.2-.3-.4-.7-.6-1.2l-.9-2.9h1.3l.9 2.8c.1.3.2.6.4.8.1.2.3.3.5.4.2.1.3.2.5.2h1.6V6.3h1.3v4.2h1.6c.2 0 .3-.1.5-.2s.3-.2.5-.4c.1-.2.3-.5.4-.8l.9-2.8h1.3l-.9 2.9c-.1.5-.3.9-.6 1.2-.2.3-.5.5-.8.6.4.1.7.4.9.7.2.3.4.8.5 1.2l.9 3.1h-1.3l-.8-2.9c-.1-.3-.2-.6-.3-.8-.1-.2-.3-.4-.4-.5-.2-.1-.3-.2-.5-.2s-.4-.1-.6-.1h-1.2V16h-1.3v-4.5h-1.2c-.2 0-.4 0-.6.1-.2 0-.3.1-.5.2s-.3.3-.4.5c-.1.2-.2.5-.3.8l-.9 2.9h-1.4zm12.3-1.2h.7l.6-.6c.2-.2.3-.5.4-.9.1-.4.2-.8.3-1.3.1-.5.1-1.2.1-1.9l.2-3.9h6.1v8.6h.8v3.3h-1.3v-2.1h-6.7v2.1h-1.3v-3.3zm2.4.1h4.8V7.5H115l-.1 2.8c0 .6-.1 1.2-.1 1.7s-.1.9-.2 1.3-.2.7-.3 1c-.1.2-.2.5-.4.7zm7.4-8.7h1.4l2.2 6.1h.1l2.2-6.1h1.3l-2.9 7.7c-.2.5-.3.8-.5 1.1-.2.3-.3.5-.5.7-.2.2-.4.3-.6.4-.2.1-.4.1-.6.1h-1.1v-1.2h.8c.2 0 .4 0 .5-.1.2-.1.3-.3.5-.6l.1-.3-2.9-7.8zm8 9.8V6.3h1.3v4.2h4.6V6.3h1.3v9.8h-1.3v-4.4h-4.6v4.4h-1.3zm8.2 0l3.4-9.8h1.3l3.4 9.8h-1.4l-.8-2.2h-3.9l-.8 2.2h-1.2zm2.6-3.4h3.1l-.8-2.3-.7-2.3h-.1l-.7 2.3-.8 2.3zm6.5 3.4V6.3h4.1c.5 0 .9.1 1.2.3.3.2.6.4.9.7.2.3.4.6.5.9.1.3.2.7.2 1.1 0 .3-.1.7-.2 1-.1.3-.3.7-.5.9-.2.3-.5.5-.9.7-.3.2-.7.3-1.2.3h-2.8v4h-1.3zm1.3-5.1h2.5c.5 0 .9-.2 1.3-.5.3-.3.5-.7.5-1.3 0-.5-.2-1-.5-1.3-.3-.3-.7-.5-1.3-.5h-2.5V11zm6.5 1.9V9.5c0-.5.1-.9.3-1.4.2-.4.4-.8.7-1.1.3-.3.7-.5 1.1-.7.4-.2.9-.2 1.5-.2.5 0 1 .1 1.5.2.4.2.8.4 1.2.7.3.3.6.6.8 1 .2.4.3.9.3 1.4v3.4c0 .5-.1 1-.3 1.4-.2.4-.4.8-.8 1-.3.3-.7.5-1.2.7-.4.2-.9.2-1.4.2-.5 0-1-.1-1.5-.2-.4-.2-.8-.4-1.1-.7-.3-.3-.6-.6-.7-1-.3-.3-.4-.8-.4-1.3zm1.3-.1c0 .4.1.7.2 1 .1.3.3.5.5.7.2.2.5.3.7.4.3.1.6.1.9.1.3 0 .6 0 .9-.1.3-.1.5-.2.7-.4.2-.2.4-.4.5-.7.1-.3.2-.6.2-1V9.7c0-.4-.1-.7-.2-1-.1-.3-.3-.5-.5-.7-.2-.2-.5-.3-.7-.4-.3-.1-.6-.1-.9-.1-.3 0-.6 0-.9.1-.3.1-.5.2-.7.4-.2.2-.4.4-.5.7-.1.3-.2.6-.2 1v3.1zm6.5 2.1h.7l.6-.6c.2-.2.3-.5.4-.9.1-.4.2-.8.3-1.3.1-.5.1-1.2.1-1.9l.2-3.9h6.1v8.6h.8v3.3h-1.3v-2.1h-6.7v2.1h-1.3v-3.3zm2.4.1h4.8V7.5h-3.6l-.1 2.8c0 .6-.1 1.2-.1 1.7s-.1.9-.2 1.3-.2.7-.3 1c-.2.2-.3.5-.5.7zm8.1 1.1V6.3h1.3v4.2h4.6V6.3h1.3v9.8h-1.3v-4.4H174v4.4h-1.3zm8.8 0V6.3h1.3v4.1h2.7c.4 0 .8.1 1.2.2.3.2.6.4.9.7l.6.9c.1.3.2.7.2 1 0 .4-.1.7-.2 1-.1.3-.3.7-.5.9-.2.3-.5.5-.9.7-.3.2-.8.3-1.2.3h-4.1zm1.3-1.2h2.5c.5 0 .9-.2 1.3-.5.3-.3.5-.7.5-1.3 0-.3 0-.5-.1-.7-.1-.2-.2-.4-.4-.5-.2-.1-.4-.3-.6-.3-.2-.1-.5-.1-.7-.1h-2.5v3.4zm6.7 1.2V6.3h1.3v9.8h-1.3zm3 0V6.3h1.3v7.5h.1l1.3-2 3.6-5.5h1.3v9.8h-1.3V8.5h-.1l-1.4 2.3-3.4 5.3h-1.4zm1.5-12h1.1c0 .1 0 .2.1.3 0 .1.1.2.2.3.1.1.2.2.3.2.1.1.3.1.4.1.2 0 .3 0 .4-.1.1-.1.2-.1.3-.2.1-.1.1-.2.2-.3 0-.1.1-.2.1-.3h1.1c0 .2-.1.4-.1.6l-.3.6c-.2.2-.4.3-.6.5-.3.1-.6.2-1 .2s-.7-.1-1-.2c-.3-.1-.5-.3-.6-.5-.2-.2-.3-.4-.3-.6-.2-.3-.3-.5-.3-.6zM81.2 26.6v-1.4c0-.5.1-.9.3-1.4.2-.4.4-.8.8-1.1.3-.3.8-.6 1.2-.8.5-.2 1-.3 1.7-.3v-.4h1.3v.4c.6 0 1.2.1 1.7.3.5.2.9.5 1.2.8.3.3.6.7.8 1.1.2.4.3.9.3 1.4v1.3c0 .5-.1 1-.3 1.4-.2.4-.4.8-.8 1.2-.3.3-.7.6-1.2.8-.5.2-1.1.3-1.7.3v.8h-1.3v-.8c-.6 0-1.2-.1-1.7-.3-.5-.2-.9-.5-1.2-.8-.3-.3-.6-.7-.8-1.1-.2-.4-.3-.9-.3-1.4zm1.3 0c0 .4.1.7.2 1.1.1.3.3.6.5.8.2.2.5.4.8.5.3.1.7.2 1.1.2v-6.3c-.4 0-.8.1-1.1.2-.3.1-.6.3-.8.5-.2.2-.4.5-.5.8-.1.3-.2.7-.2 1v1.2zm4 2.5c.4 0 .7-.1 1.1-.2.3-.1.6-.3.8-.5.2-.2.4-.5.5-.8.1-.3.2-.7.2-1.1v-1.2c0-.4-.1-.7-.2-1-.1-.3-.3-.6-.5-.8-.2-.2-.5-.4-.8-.5-.3-.1-.7-.2-1.1-.2v6.3zm5.6 2v-9.8h1.3v7.5h.1l1.3-2 3.6-5.5h1.3v9.8h-1.3v-7.6h-.1l-1.4 2.3-3.4 5.3h-1.4zm9.1 0v-9.8h1.3v4.2h4.6v-4.2h1.3v9.8h-1.3v-4.4h-4.6v4.4h-1.3zm8.2 0l3.4-9.8h1.3l3.4 9.8h-1.4l-.8-2.2h-3.9l-.8 2.2h-1.2zm2.6-3.4h3.1l-.8-2.3-.7-2.3h-.1l-.7 2.3-.8 2.3zm6.5 3.4v-9.8h1.3v4.2h4.6v-4.2h1.3v9.8h-1.3v-4.4h-4.6v4.4h-1.3zm8.8-3.1v-3.6c0-.5.1-.9.3-1.3.2-.4.4-.7.8-1 .3-.3.7-.5 1.1-.6.4-.1.9-.2 1.3-.2.5 0 1 .1 1.5.2s.9.4 1.3.7l-.7 1c-.3-.2-.6-.4-1-.5-.4-.1-.8-.2-1.1-.2-.3 0-.5 0-.8.1-.3.1-.5.2-.7.4-.2.2-.4.4-.5.7-.1.3-.2.6-.2 1v3.1c0 .4.1.7.2 1 .1.3.3.5.5.7.2.2.4.3.7.4.3.1.5.1.8.1.4 0 .7-.1 1.1-.2.4-.1.7-.3 1-.5l.6 1c-.3.2-.7.5-1.2.6-.5.2-1 .3-1.6.3-.5 0-.9-.1-1.4-.2-.4-.1-.8-.4-1.1-.6-.3-.3-.6-.6-.8-1 0-.4-.1-.9-.1-1.4zm7.4-.1v-3.4c0-.5.1-.9.3-1.4.2-.4.4-.8.7-1.1.3-.3.7-.5 1.1-.7.4-.2.9-.2 1.5-.2.5 0 1 .1 1.5.2.4.2.8.4 1.2.7.3.3.6.6.8 1 .2.4.3.9.3 1.4v3.4c0 .5-.1 1-.3 1.4-.2.4-.4.8-.8 1-.3.3-.7.5-1.2.7-.4.2-.9.2-1.4.2-.5 0-1-.1-1.5-.2-.4-.2-.8-.4-1.1-.7-.3-.3-.6-.6-.7-1-.3-.3-.4-.8-.4-1.3zm1.4-.1c0 .4.1.7.2 1 .1.3.3.5.5.7.2.2.5.3.7.4.3.1.6.1.9.1.3 0 .6 0 .9-.1.3-.1.5-.2.7-.4.2-.2.4-.4.5-.7.1-.3.2-.6.2-1v-3.1c0-.4-.1-.7-.2-1-.1-.3-.3-.5-.5-.7-.2-.2-.5-.3-.7-.4-.3-.1-.6-.1-.9-.1-.3 0-.6 0-.9.1-.3.1-.5.2-.7.4-.2.2-.4.4-.5.7-.1.3-.2.6-.2 1v3.1zm7.4 3.3v-9.8h4.1c.4 0 .8.1 1.2.2.3.1.6.3.9.6.2.2.4.5.5.8.1.3.2.6.2 1s-.1.8-.3 1.1c-.2.4-.5.7-.9.9.5.2.8.6 1 1 .2.4.3.8.3 1.3 0 .4-.1.7-.2 1-.1.3-.3.6-.5.9-.2.3-.5.5-.9.7-.4.2-.8.3-1.2.3h-4.2zm1.3-5.7h2.6c.2 0 .4 0 .6-.1.2-.1.4-.2.5-.3.1-.1.3-.3.4-.5.1-.2.1-.4.1-.6 0-.5-.2-.9-.5-1.1-.3-.2-.7-.3-1.3-.3h-2.5v2.9zm0 4.6h2.7c.6 0 1-.1 1.3-.4.3-.3.4-.7.4-1.3 0-.3 0-.5-.1-.7-.1-.2-.2-.4-.4-.5-.2-.1-.4-.3-.6-.3-.2-.1-.4-.1-.7-.1h-2.6V30zm7.2 1.1v-9.8h1.3v4.1h2.7c.4 0 .8.1 1.2.2.3.2.6.4.9.7l.6.9c.1.3.2.7.2 1 0 .4-.1.7-.2 1-.1.3-.3.7-.5.9-.2.3-.5.5-.9.7-.3.2-.8.3-1.2.3H152zm1.3-1.2h2.5c.5 0 .9-.2 1.3-.5.3-.3.5-.7.5-1.3 0-.3 0-.5-.1-.7-.1-.2-.2-.4-.4-.5-.2-.1-.4-.3-.6-.3-.2-.1-.5-.1-.7-.1h-2.5v3.4zm6.7 1.2v-9.8h1.3v9.8H160zm3 0v-9.8h1.3v7.5h.1l1.3-2 3.6-5.5h1.3v9.8h-1.3v-7.6h-.1l-1.4 2.3-3.4 5.3H163zm1.5-12.1h1.1c0 .1 0 .2.1.3 0 .1.1.2.2.3.1.1.2.2.3.2.1.1.3.1.4.1.2 0 .3 0 .4-.1.1-.1.2-.1.3-.2.1-.1.1-.2.2-.3s.1-.2.1-.3h1.1c0 .2-.1.4-.1.6l-.3.6c-.2.2-.4.3-.6.5-.3.1-.6.2-1 .2s-.7-.1-1-.2c-.3-.1-.5-.3-.6-.5-.2-.2-.3-.4-.3-.6-.2-.2-.3-.4-.3-.6zM81.1 46.1v-9.8h1.3V45H87v-8.7h1.3v8.6h.8v3.3h-1.3v-2.1h-6.7zm9.1 0v-9.8h6.5v1.2h-5.2v3.1H96v1.2h-4.5V45h5.2v1.2h-6.5zm7.9 0v-9.8h1.3v4.2h4.6v-4.2h1.3v9.8H104v-4.4h-4.6v4.4h-1.3zm8.2-8.6v-1.2h7v1.2h-2.8v8.6h-1.3v-8.6h-2.9zm8 8.6v-9.8h4.1c.5 0 .9.1 1.2.3.3.2.6.4.9.7.2.3.4.6.5.9.1.3.2.7.2 1.1 0 .3-.1.7-.2 1-.1.3-.3.7-.5.9-.2.3-.5.5-.9.7-.3.2-.7.3-1.2.3h-2.8v4h-1.3zm1.3-5.1h2.5c.5 0 .9-.2 1.3-.5.3-.3.5-.7.5-1.3 0-.5-.2-1-.5-1.3-.3-.3-.7-.5-1.3-.5h-2.5V41z"/></svg>