<svg id="Слой_1" xmlns="http://www.w3.org/2000/svg" viewBox="0 0 124 100"><style>.st0{opacity:.26;fill:#aa1a17}</style><path class="st0" d="M121 35.5h-4.5c-1.5-3.9-3.5-7.6-6.1-11L112 3.2c.1-1.2-.6-2.4-1.7-2.9s-2.4-.3-3.3.5L95.2 11.6C87.5 7.4 78.5 5 69 5 42.5 5 20.7 23.5 19.1 46.8c-5.4-.8-11.6-3.7-12.9-6.2-.2-.4-.4-.9.2-1.8 1.7-2.3 2.9-3.2 3.5-3.4 0 .1.1.2.1.4.4 1.6 2 2.6 3.6 2.2 1.6-.4 2.6-2 2.2-3.6-.7-2.7-2.4-4.5-4.7-4.9-2.2-.4-5.7.3-9.7 5.9-1.8 2.5-2.1 5.4-.7 8 2.7 5.2 11.6 8.7 18.3 9.5 1 12.3 7.9 23.9 18.8 31.6V97c0 1.7 1.3 3 3 3h18c1.5 0 2.8-1.1 3-2.6l.5-3.8c2.2.2 4.3.4 6.5.4 1.9 0 3.7-.1 5.5-.3l.5 3.7c.2 1.5 1.5 2.6 3 2.6h18c1.7 0 3-1.3 3-3V85.1c8.2-5.5 14.3-13 17.5-21.6h4.5c1.7 0 3-1.3 3-3v-22c.2-1.7-1.1-3-2.8-3zm-15.6-25.1l-.6 8.1c-1.4-1.3-2.8-2.4-4.4-3.5l5-4.6zM118 57.5h-4.4c-.1 0-.2.1-.3.1-.1 0-.2.1-.2.1-.1 0-.2.1-.3.1-.1 0-.1.1-.2.1-.1.1-.2.1-.2.2l-.2.2c-.1.1-.1.2-.2.2-.1.1-.1.2-.2.2 0 .1-.1.2-.1.2 0 .1-.1.2-.1.3 0 0 0 .1-.1.1-2.7 8.6-8.7 16.1-17 21.3l-.3.3-.1.1-.3.3-.1.1c-.1.1-.1.2-.2.4l-.1.1c-.1.1-.1.2-.1.4 0 .1 0 .1-.1.2V94H80.6L79 81.6c-.2-1.6-1.7-2.8-3.4-2.6-1.6.2-2.8 1.7-2.6 3.4l.7 5.4c-3.5.3-7 .3-10.5-.1l.7-5.3c.2-1.6-.9-3.2-2.6-3.4-1.6-.2-3.2.9-3.4 2.6L56.4 94H44V82.3c0-.2-.1-.4-.2-.6v-.1c-.1-.1-.1-.2-.2-.4 0-.1-.1-.1-.1-.2-.1-.2-.2-.3-.4-.4-.1-.1-.3-.2-.4-.3C31.4 73 25 61.7 25 49.5 25 28.3 44.7 11 69 11c19.8 0 37.3 11.7 42.5 28.4 0 0 0 .1.1.1 0 .1.1.2.1.3 0 .1.1.1.1.2.1.1.1.2.2.3 0 .1.1.1.1.2l.3.3c.1 0 .1.1.2.1.1.1.2.1.3.2.1 0 .1.1.2.1.1.1.2.1.4.2.1 0 .1 0 .2.1.1 0 .3.1.4.1h4.1v15.9zM83.7 22.1c-.5 1.6-2.2 2.4-3.8 1.9-6.9-2.3-14.8-2.3-21.7 0-.3.1-.6.2-1 .2-1.3 0-2.4-.8-2.8-2-.5-1.6.3-3.3 1.9-3.8 4.1-1.4 8.4-2.1 12.8-2.1s8.7.7 12.8 2.1c1.5.5 2.3 2.2 1.8 3.7zM101 36.5c0 1.9-1.6 3.5-3.5 3.5S94 38.4 94 36.5s1.6-3.5 3.5-3.5 3.5 1.6 3.5 3.5z"/></svg>