<svg width="82" height="125" id="Слой_1" xmlns="http://www.w3.org/2000/svg" viewBox="0 0 82 124.1"><style>.st0{opacity:.26;fill:#fff;enable-background:new}</style><path class="st0" d="M69 41c0 1.7-1.3 3-3 3s-3-1.3-3-3c0-12.1-9.9-22-22-22-1.7 0-3-1.3-3-3s1.3-3 3-3c15.4 0 28 12.6 28 28zm13 0c0 10.8-4.2 21-11.7 28.7-6.3 6.4-9.8 14.8-9.8 23.6V105c0 4.2-2.9 7.7-6.8 8.7-1.2 5.9-6.5 10.3-12.7 10.3s-11.5-4.4-12.7-10.3c-3.9-1-6.8-4.5-6.8-8.7V93.3c0-8.7-3.5-17.1-9.9-23.7C3.5 61.2-.7 49.7.1 38.1 1.5 17.8 17.8 1.5 38 .1 49.6-.7 60.5 3.2 68.9 11 77.2 18.7 82 29.7 82 41zm-34.7 73H34.7c1.1 2.4 3.5 4 6.3 4s5.2-1.6 6.3-4zM76 41c0-9.7-4.1-19-11.1-25.6C58.3 9.3 49.9 6 41 6c-.9 0-1.7 0-2.6.1C21.2 7.3 7.3 21.2 6.1 38.5c-.7 10 2.9 19.8 9.8 26.9C22.3 72 26.3 80.3 27.3 89h18.2c1.7 0 3 1.3 3 3s-1.3 3-3 3h-18v10c0 1.7 1.3 3 3 3h21c1.7 0 3-1.3 3-3V93.3c0-10.3 4.1-20.2 11.5-27.8 6.4-6.6 10-15.3 10-24.5z"/></svg>