<svg id="Слой_1" xmlns="http://www.w3.org/2000/svg" viewBox="0 0 75 75.7"><style>.st0{fill:#aa1a17}</style><path class="st0" d="M70.3 53.2c-1-.5-2.2-.5-3.3 0l-15.4 6.9c0-.2.1-.5.1-.7 0-2.2-1.7-4-3.8-4H37.1L29 51.6c-1.7-.8-3.6-1.2-5.5-1.2h-6.3v-2.9H0v1.7h15.6v22.1H3.1V73h14.2v-2.9H22l14.9 5c1 .3 2 .5 3 .5 1.5 0 3.1-.3 4.5-1l25.8-13.5c1-.5 1.9-1.3 2.3-2.3.5-1 .5-2.2 0-3.3-.3-1-1.1-1.8-2.2-2.3zm.7 4.9c-.2.6-.7 1-1.4 1.4L43.7 73c-1.9.9-4.2 1.2-6.2.5l-15-5h-5.1V52.2h6.3c1.6 0 3.3.3 4.7 1l8.5 4H48c1.2 0 2.2 1 2.2 2.2 0 1.3-1 2.2-2.2 2.2H34.7c-1.2.2-3.5 1.3-3.5 3.6H33c0-1.4 1.6-1.7 2-1.9h13c.7 0 1.3-.2 1.7-.5l18-8c1.3-.6 2.8.1 3.3 1.4.3.6.3 1.3 0 1.9z"/><path class="st0" d="M7.2 67.6h1.7v1.7H7.2zm3.7 0h1.7v1.7h-1.7zm63.9-51.9c-.5-1-1.2-1.7-2.2-2.2-.5-.2-.8-.2-1.3-.3l1.9-4.5-4.5-1.9c.3-.3.6-.7.7-1.2.8-2.1-.1-4.4-2.2-5.4C66.6.1 66 0 65.4 0c-1.6 0-3.1.9-3.7 2.6-.2.5-.2.9-.3 1.3L56.8 2 55 6.5c-.3-.3-.7-.6-1.2-.7-.5-.2-1-.3-1.6-.3-1.6 0-3.1.9-3.7 2.6-.8 2.1.1 4.5 2.2 5.4.5.2.8.2 1.3.3l-1.9 4.5L66.3 25l1.9-4.5c.3.3.7.6 1.2.7.5.2 1 .3 1.6.3 1.6 0 3.1-.9 3.7-2.6.4-1 .4-2.1.1-3.2zm-1.7 2.6c-.5 1.2-1.9 1.7-3.1 1.3-.6-.2-1-.7-1.3-1.2l-.8-1.9-2.6 6.2-12.9-5.5L55 11l-1.9.7c-.6.2-1.2.2-1.7 0-1.2-.5-1.7-1.9-1.3-3.1.5-1.2 1.9-1.7 3-1.3.6.3.9.7 1.3 1.2l.8 1.9 2.7-6.2L64 6.8l-.7-1.9c-.2-.6-.2-1.2 0-1.7.5-1.2 1.9-1.7 3.1-1.3 1.2.5 1.7 1.9 1.3 3-.2.6-.7 1-1.2 1.3l-1.8.8 6.2 2.6-2.6 6.2 1.9-.7c.6-.2 1.2-.2 1.7 0 .6.2 1 .7 1.3 1.3.2.6.2 1.3-.1 1.9z"/><path class="st0" d="M27.6 27v3.1c-.5-.1-.8-.2-1.3-.2-2.2 0-4.1 1.9-4.1 4.1s1.9 4.1 4.1 4.1c.5 0 .9-.1 1.3-.2v4.9h4.9c-.1.5-.2.9-.2 1.4 0 2.2 1.9 4.1 4.1 4.1s4.1-1.9 4.1-4.1c0-.5-.1-.9-.2-1.4h8c-.1.5-.2.9-.2 1.4 0 2.2 1.9 4.1 4.1 4.1 2.2 0 4.1-1.9 4.1-4.1 0-.5-.1-.9-.2-1.4H61v-4.9c.5.1.9.2 1.3.2 2.2 0 4.1-1.9 4.1-4.1s-1.9-4.1-4.1-4.1c-.5 0-.9.1-1.3.2v-4.9H45.2v-6.8l-1.5 1.4c-.5.5-1 .7-1.6.7-1.3 0-2.3-1-2.3-2.3 0-1.3 1-2.3 2.3-2.3.6 0 1.2.2 1.6.6l1.5 1.4V9.4h-4.9c.1-.5.2-.8.2-1.3 0-2.2-1.9-4.1-4.1-4.1-2.3-.1-4.2 1.7-4.2 4.1 0 .5.1.9.2 1.3h-4.9v4.9c-.5-.1-.8-.2-1.3-.2-2.2 0-4.1 1.9-4.1 4.1s1.9 4.1 4.1 4.1c.5 0 .9-.1 1.3-.2V27zm15.8 14.1h-6.8l1.4 1.5c.5.5.7 1 .7 1.6 0 1.3-1 2.3-2.3 2.3-1.3 0-2.3-1-2.3-2.3 0-.6.2-1.2.6-1.6l1.4-1.5h-6.8v-6.8l-1.5 1.4c-.5.5-1 .7-1.6.7-1.3 0-2.3-1-2.3-2.3s1-2.3 2.3-2.3c.6 0 1.2.2 1.6.6l1.5 1.4V27h14.1v3.1c-.5-.1-.8-.2-1.3-.2-.6 0-1.2.1-1.6.3-1.5.7-2.5 2.2-2.5 3.8 0 2.2 1.9 4.1 4.1 4.1.5 0 .9-.1 1.3-.2v3.3zM45.2 27h14.1v6.6l1.5-1.4c.3-.3.8-.7 1.6-.7 1.3 0 2.3 1 2.3 2.3s-1 2.3-2.3 2.3c-.6 0-1.2-.2-1.6-.6l-1.5-1.4V41h-6.8l1.4 1.5c.5.5.7 1 .7 1.6 0 1.3-1 2.3-2.3 2.3-1.3 0-2.3-1-2.3-2.3 0-.6.2-1.2.6-1.6L52 41h-6.8v-6.8l-1.5 1.4c-.2.2-.5.3-.7.5-.2.1-.6.1-.8.1-1.3 0-2.3-1-2.3-2.3 0-.9.6-1.9 1.4-2.2.2-.1.6-.2.9-.2.6 0 1.2.2 1.6.6l1.5 1.4V27h-.1zm-15.9-1.7v-6.8l-1.5 1.4c-.5.5-1 .7-1.6.7-1.3 0-2.3-1-2.3-2.3 0-1.3 1-2.3 2.3-2.3.6 0 1.2.2 1.6.6l1.5 1.4v-6.8h6.8l-1.4-1.5c-.5-.4-.7-1-.7-1.5 0-1.3 1-2.3 2.3-2.3 1.3 0 2.3 1 2.3 2.3 0 .6-.2 1.2-.7 1.6l-1.4 1.5h6.8v3.1c-.5-.1-.8-.2-1.3-.2-2.2 0-4.1 1.9-4.1 4.1s1.9 4.1 4.1 4.1c.5 0 .9-.1 1.3-.2v3.1h-14z"/></svg>